<?xml version="1.0" standalone="no"?>
<!DOCTYPE svg PUBLIC "-//W3C//DTD SVG 1.1//EN" "http://www.w3.org/Graphics/SVG/1.1/DTD/svg11.dtd" >
<svg>
<metadata>
Created by FontForge 20120731 at Tue Jun  4 15:48:50 2019
 By www-data
Copyright (c) ParaType Inc., 2001. All rights reserved.
</metadata>
<defs>
<font id="AdventureC" horiz-adv-x="511" >
  <font-face 
    font-family="AdventureC"
    font-weight="400"
    font-stretch="normal"
    units-per-em="1000"
    panose-1="0 0 5 0 0 0 0 0 0 0"
    ascent="578"
    descent="-422"
    x-height="440"
    cap-height="675"
    bbox="-222 -422 1087 921.008"
    underline-thickness="20"
    underline-position="-113"
    stemh="79"
    stemv="44"
    unicode-range="U+0020-2265"
  />
<missing-glyph horiz-adv-x="475" 
 />
    <glyph glyph-name=".notdef" horiz-adv-x="475" 
 />
    <glyph glyph-name="space" unicode=" " horiz-adv-x="475" 
 />
    <glyph glyph-name="space" unicode="&#xa0;" horiz-adv-x="475" 
 />
    <glyph glyph-name="exclam" unicode="!" horiz-adv-x="328" 
d="M391 712c0 0 -36 -78 -54 -128c-20 -56 -28 -75 -49 -132c-50 -136 -94 -228 -116 -267c-13 -22 -24 -31 -35 -31c-12 0 -17 6 -16 16c1 16 129 364 160 450c18 51 30 73 42 83c8 6 12 12 32 16c8 1 18 1 30 2c4 0 5 -3 6 -9zM148 46c-4 -32 -25 -63 -66 -63
c-28 0 -37 9 -33 42c6 42 22 68 70 68c29 0 33 -16 29 -47z" />
    <glyph glyph-name="quotedbl" unicode="&#x22;" horiz-adv-x="400" 
d="M411 694c-1 -13 -25 -63 -43 -98c-27 -50 -41 -73 -60 -91c-11 -10 -18 -12 -24 -12s-11 1 -11 6c1 19 45 133 52 161c9 32 36 47 73 47c18 0 13 -5 13 -13zM281 694c-1 -13 -25 -64 -41 -100c-20 -43 -33 -72 -60 -86c-5 -2 -14 -9 -21 -9c-4 0 -7 2 -6 7
c0 5 37 124 42 154c6 32 36 47 73 47c18 0 13 -5 13 -13z" />
    <glyph glyph-name="numbersign" unicode="#" horiz-adv-x="600" 
d="M607 676c0 -10 -30 -72 -54 -128c-14 -34 -27 -67 -34 -88l49 2c14 1 20 -1 20 -8c-1 -6 -8 -14 -21 -22c-15 -10 -28 -18 -65 -19c-16 -49 -34 -98 -52 -149l65 3c13 1 19 -1 19 -11c0 -6 -5 -14 -20 -21c-12 -6 -28 -12 -47 -14c-16 -2 -24 -3 -35 -3
c-11 -35 -24 -73 -36 -114c-3 -12 -5 -21 -9 -40c-6 -26 -11 -41 -16 -53c-8 -20 -47 -57 -75 -57c-10 0 -21 1 -21 14c0 6 3 23 14 53c9 25 17 48 21 59c14 41 27 85 43 135c-17 -1 -36 -2 -57 -2c-67 -2 -87 -2 -121 -3c-9 -27 -18 -56 -27 -86c-3 -12 -6 -25 -9 -40
c-3 -14 -3 -21 -8 -33c-10 -22 -57 -77 -84 -77c-14 0 -21 4 -21 14c0 8 5 24 15 53c12 34 37 114 55 167c-21 0 -53 -1 -68 -1c-12 0 -18 3 -18 11c1 16 8 25 23 32s36 7 54 8c14 1 17 0 25 0c15 47 38 101 52 145c-26 1 -65 -1 -83 -1c-12 0 -17 3 -17 11c0 16 6 26 22 32
c14 5 33 7 55 8h42c28 80 48 130 57 153c18 44 27 68 31 72c9 11 20 19 50 25c8 1 19 2 31 2c6 0 6 -3 6 -9l-54 -128c-12 -28 -25 -65 -42 -113c91 1 130 2 178 2c24 67 38 104 48 129c18 45 22 58 31 72c10 15 22 21 51 25c8 1 16 2 26 2s11 -4 11 -9zM423 410
c-61 0 -130 -4 -180 -5c-16 -46 -32 -93 -49 -140c-2 -2 -2 -4 -3 -6c89 1 128 2 178 3c9 26 19 54 30 82c9 24 16 46 24 66z" />
    <glyph glyph-name="dollar" unicode="$" horiz-adv-x="497" 
d="M533 643c0 -31 -10 -44 -14 -51c-7 -11 -27 -34 -43 -34c3 38 -25 77 -65 88c-27 -78 -61 -170 -90 -253c103 -90 131 -132 127 -193c-7 -98 -105 -223 -281 -223c-13 -26 -39 -67 -50 -67c-10 0 -22 4 -21 14c1 26 14 54 14 54c-59 6 -121 46 -118 91c2 36 28 59 68 69
c6 -47 21 -86 69 -104c46 130 82 233 112 316c-74 71 -87 110 -84 156c8 100 89 165 208 183c10 21 23 44 41 52c8 3 16 4 28 4c9 0 9 -7 9 -11c0 -8 -15 -43 -15 -43c55 -2 105 -33 105 -48zM351 651c-67 -7 -114 -45 -118 -105c-3 -36 3 -55 41 -103c51 139 65 171 77 208
zM373 170c3 42 -45 97 -85 135c-24 -68 -78 -210 -104 -283c54 -5 178 -5 189 148z" />
    <glyph glyph-name="percent" unicode="%" horiz-adv-x="675" 
d="M386 601c-6 -86 -94 -186 -206 -186c-66 0 -89 43 -86 87c4 47 30 90 95 140c39 30 76 39 84 41c17 8 40 10 54 10c39 0 63 -35 59 -92zM614 721c-1 -24 -25 -47 -47 -85c-109 -182 -254 -380 -363 -546c-22 -34 -18 -28 -39 -54c-22 -26 -50 -38 -63 -38c-5 0 -6 3 -6 6
c1 10 28 45 49 74c13 18 331 485 395 589c27 44 75 65 74 54zM602 197c-6 -86 -86 -187 -198 -187c-66 0 -89 43 -86 87c3 47 24 100 93 155c46 37 89 45 130 45c39 0 65 -43 61 -100zM319 576c1 20 -1 36 -7 49s-15 19 -25 19c-4 0 -14 1 -23 1c-79 0 -98 -93 -99 -113
c-3 -36 11 -80 48 -80c38 0 98 18 106 124zM535 172c4 62 -13 84 -40 84c-87 0 -102 -74 -106 -129c-3 -36 10 -80 47 -80c38 0 93 41 99 125z" />
    <glyph glyph-name="ampersand" unicode="&#x26;" horiz-adv-x="719" 
d="M722 354c-2 -24 -17 -35 -51 -42c-20 -4 -56 -6 -75 -7c-20 -33 -90 -123 -177 -200c28 -39 71 -65 121 -65c87 0 125 39 148 57c5 4 10 4 15 4c2 0 3 -1 3 -4c0 -4 -6 -15 -8 -17c-34 -30 -96 -86 -209 -86c-77 0 -125 55 -131 65c-12 -7 -88 -69 -185 -69
c-77 0 -142 37 -142 129c0 128 191 209 217 228c0 0 -2 42 -2 79c0 126 156 284 255 284c66 0 79 -33 76 -74c-8 -103 -210 -244 -256 -275c13 -81 56 -191 84 -232c112 108 122 174 122 174c-28 0 -30 -2 -47 -2s-27 -5 -26 12c2 30 48 37 88 38l70 2c35 1 84 4 91 4
c17 0 19 2 19 -3zM501 612c3 38 -11 56 -37 56c-94 0 -151 -110 -151 -222c0 -24 3 -58 3 -58c81 56 178 125 185 224zM340 82c-53 88 -66 139 -89 235c-45 -28 -148 -64 -148 -175c0 -72 35 -113 97 -113c56 0 109 30 140 53z" />
    <glyph glyph-name="quotesingle" unicode="'" horiz-adv-x="258" 
d="M202 694c-1 -13 -25 -64 -41 -100c-20 -43 -33 -72 -60 -86c-5 -2 -14 -9 -21 -9c-4 0 -7 2 -6 7c0 5 37 124 42 154c6 32 36 47 73 47c18 0 13 -5 13 -13z" />
    <glyph glyph-name="parenleft" unicode="(" horiz-adv-x="314" 
d="M418 725c-113 -87 -277 -229 -300 -563c-8 -111 10 -164 32 -204c0 0 -6 -29 -20 -42c-8 -8 -3 -14 -25 -14c-33 0 -71 90 -63 203c24 333 214 566 369 633z" />
    <glyph glyph-name="parenright" unicode=")" horiz-adv-x="339" 
d="M-90 -85c113 87 277 229 300 563c8 111 -10 164 -32 204c0 0 6 29 20 42c8 8 3 14 25 14c33 0 71 -90 63 -203c-24 -333 -214 -566 -369 -633z" />
    <glyph glyph-name="asterisk" unicode="*" horiz-adv-x="369" 
d="M406 690c0 -20 -28 -56 -50 -76c-29 -27 -56 -50 -88 -69c43 -29 82 -44 95 -56c-6 -20 -27 -50 -46 -50c-15 0 -49 18 -81 38c-3 -14 -9 -30 -16 -49c-10 -25 -15 -29 -30 -29c-14 0 -22 4 -26 8c9 40 17 63 25 93c-44 -24 -81 -40 -94 -40c-10 0 -14 5 -14 12
c1 10 36 20 92 52c-42 36 -76 75 -74 98c1 19 25 52 48 52c13 0 18 -14 23 -24c10 -22 26 -41 43 -58c12 50 28 102 37 115c5 8 15 10 31 14c8 2 15 4 24 4c8 0 6 -8 5 -13c0 0 -24 -77 -43 -130c33 24 61 50 98 89c8 9 22 30 34 30c4 0 7 -3 7 -11z" />
    <glyph glyph-name="plus" unicode="+" horiz-adv-x="450" 
d="M462 348c-1 -17 -21 -30 -54 -36c-14 -2 -67 -4 -125 -5c-14 -36 -28 -85 -41 -124c-14 -41 -32 -65 -73 -65c-16 0 -22 4 -22 14c1 17 26 69 46 121c4 11 18 53 18 53c-64 -1 -118 -1 -118 -1c-18 0 -44 -7 -43 10c3 39 44 40 77 40c0 0 50 0 100 -1c11 34 22 69 31 95
c12 36 31 87 61 100c11 5 25 6 39 6c6 0 8 -5 8 -15c0 -14 -14 -39 -44 -120c-9 -24 -17 -46 -23 -65h23c35 1 114 4 121 4c17 0 20 -6 19 -11z" />
    <glyph glyph-name="comma" unicode="," horiz-adv-x="233" 
d="M142 18c-10 -139 -145 -240 -172 -240c-10 0 -6 2 -6 8c1 12 46 31 72 69c18 26 26 59 28 88c3 39 -14 52 -11 90c1 17 15 29 26 38c21 17 29 21 39 21c18 0 29 -13 24 -74z" />
    <glyph glyph-name="hyphen" unicode="-" horiz-adv-x="324" 
d="M291 284l-16 -51h-241l18 51h239z" />
    <glyph glyph-name="hyphen" unicode="&#xad;" horiz-adv-x="324" 
d="M291 284l-16 -51h-241l18 51h239z" />
    <glyph glyph-name="period" unicode="." horiz-adv-x="245" 
d="M173 68c0 -37 -16 -85 -67 -85c-24 0 -34 8 -34 29c0 43 17 81 71 81c21 0 30 -8 30 -25z" />
    <glyph glyph-name="slash" unicode="/" horiz-adv-x="355" 
d="M448 768l-371 -830c-9 -21 -32 -41 -43 -42c-7 0 -9 0 -9 11c0 31 359 825 387 862c8 4 21 8 29 8s8 -4 7 -9z" />
    <glyph glyph-name="zero" unicode="0" 
d="M557 559c0 -106 -57 -237 -139 -363c-97 -149 -198 -214 -287 -214c-92 0 -108 70 -108 162c0 102 98 328 245 462c64 59 113 78 138 82c25 11 49 16 74 16c61 0 77 -76 77 -145zM474 532c0 61 -10 110 -56 110c-87 0 -154 -63 -232 -196c-43 -74 -80 -222 -80 -283
c0 -82 20 -126 81 -126c44 0 120 44 172 126c58 92 115 268 115 369z" />
    <glyph glyph-name="one" unicode="1" 
d="M457 696c0 -3 -34 -78 -54 -128c-40 -99 -84 -217 -100 -265c-14 -42 -42 -129 -56 -179c-2 -8 -14 -61 -19 -77c-5 -17 -15 -38 -55 -63c-10 -6 -19 -10 -27 -10c-14 0 -21 4 -21 14c0 12 15 47 35 112c21 67 53 162 90 264c32 87 74 202 99 266c4 10 -88 -39 -102 -39
c-10 0 -11 5 -11 10c1 14 52 36 86 57c14 8 57 34 80 42c12 4 30 6 44 6c10 0 11 -4 11 -10z" />
    <glyph glyph-name="two" unicode="2" horiz-adv-x="644" 
d="M577 588c0 -105 -89 -196 -189 -282c-143 -122 -266 -242 -266 -254c55 10 113 23 192 30c39 3 83 2 116 2c25 0 68 -7 66 -33c-1 -19 -21 -40 -45 -50c-24 11 -81 19 -139 19c-59 0 -187 -24 -187 -24c-16 -2 -35 -6 -53 -6c-15 0 -24 7 -24 19c0 15 95 119 227 232
c67 57 211 171 221 321c6 83 -44 112 -95 112c-82 0 -156 -41 -159 -114c-1 -22 -17 -22 -28 -22c-16 0 -18 7 -18 28c0 67 137 138 233 138c67 0 148 -17 148 -116z" />
    <glyph glyph-name="three" unicode="3" 
d="M571 658c0 -13 -158 -161 -208 -206c75 -17 105 -64 99 -154c-8 -106 -120 -204 -184 -241c-102 -59 -170 -61 -219 -61c-38 0 -76 11 -76 30c0 32 34 49 49 48c9 -13 16 -42 81 -42c139 0 267 118 267 264c0 65 -23 81 -49 95c-16 9 -50 8 -50 17c0 16 37 38 53 52
c57 50 130 123 154 154c-22 -2 -118 -3 -226 -9c-20 -1 -51 -8 -50 7c3 39 73 61 112 61h101c35 0 113 4 120 4c17 0 26 -2 26 -19z" />
    <glyph glyph-name="four" unicode="4" 
d="M517 617c0 -3 -21 -40 -41 -90c-31 -75 -63 -153 -86 -213c23 0 38 -2 38 -19s-18 -34 -26 -34c-10 0 -31 2 -31 2c-10 -32 -32 -79 -46 -123c-9 -26 -19 -63 -23 -82c-1 -8 -5 -31 -12 -40c-6 -9 -19 -17 -31 -24c-11 -6 -22 -11 -30 -11c-14 0 -18 5 -18 15
c1 15 18 58 37 110c21 58 25 63 57 153c-26 -1 -65 -5 -107 -11c-57 -8 -120 -21 -143 -21c-10 0 -20 2 -19 15c1 10 23 33 34 45c43 46 92 100 154 184c60 82 112 180 122 224c9 10 30 22 47 22c5 0 7 -1 12 -4c-15 -46 -75 -136 -109 -186c-63 -94 -187 -244 -187 -244
c13 2 68 11 112 16c43 5 106 11 106 11c47 124 100 268 114 285c10 12 18 18 33 24c10 4 24 5 37 5c5 0 7 -3 6 -9z" />
    <glyph glyph-name="five" unicode="5" 
d="M593 679c-1 -8 -16 -28 -32 -42c-14 -12 -26 -19 -36 -19s-13 10 -31 10c-12 0 -50 5 -82 5c-43 0 -118 -6 -118 -6l-65 -192c17 3 46 4 81 4s142 -21 142 -145c0 -157 -189 -271 -315 -300c-27 -6 -58 -10 -93 -10c-50 0 -78 11 -76 30c2 23 33 39 43 42
c19 -32 52 -40 92 -40c107 0 264 112 264 256c0 75 -36 114 -110 114c-17 0 -30 -3 -42 -6c-13 -6 -28 -16 -35 -16c-10 0 -18 0 -18 10s6 18 9 28c14 32 88 246 88 246c-1 12 6 24 17 28c9 4 15 6 31 7c61 5 99 6 164 7c40 1 103 0 103 0c13 0 19 -3 19 -11z" />
    <glyph glyph-name="six" unicode="6" horiz-adv-x="547" 
d="M620 692c-1 -10 -13 -12 -13 -12c-17 -1 -199 -38 -305 -137c-88 -82 -185 -200 -185 -345c0 -60 16 -162 102 -162c89 0 182 76 192 222c7 102 -60 128 -100 128c-26 0 -81 -6 -140 -53l-2 17c61 64 147 86 194 86c64 0 126 -32 126 -132c0 -181 -197 -322 -324 -322
c-92 0 -130 73 -130 171c0 295 327 514 570 553c0 0 16 4 15 -14z" />
    <glyph glyph-name="seven" unicode="7" 
d="M541 668c0 -28 -14 -67 -41 -104c-41 -56 -110 -124 -180 -205c-78 -92 -130 -159 -155 -214c-10 -23 -18 -47 -18 -71c0 -9 1 -21 6 -26c5 -4 8 -8 8 -12c0 -8 -9 -17 -25 -29c-12 -9 -24 -17 -35 -17c-18 0 -26 10 -26 30c0 26 24 82 67 146c43 66 88 125 164 214
c79 93 156 197 165 236c-12 -2 -63 -4 -132 -6c-92 -3 -103 -7 -147 -7c-11 0 -16 2 -16 9c0 14 23 32 41 43c24 15 49 18 71 18h101l120 4c10 0 14 1 20 1c8 0 12 -5 12 -10z" />
    <glyph glyph-name="eight" unicode="8" horiz-adv-x="547" 
d="M574 594c0 -125 -171 -199 -203 -214c29 -26 102 -80 102 -154c0 -170 -165 -254 -288 -254c-93 0 -166 48 -166 152c0 111 131 196 248 243c-25 23 -87 72 -87 149c0 129 137 180 237 180c93 0 157 -28 157 -102zM503 574c0 50 -30 90 -94 90c-91 0 -157 -45 -157 -110
c0 -97 58 -123 94 -156c93 44 157 99 157 176zM406 184c0 69 -79 136 -115 163c-55 -28 -191 -75 -191 -199c0 -123 94 -134 134 -134c90 0 172 61 172 170z" />
    <glyph glyph-name="nine" unicode="9" horiz-adv-x="547" 
d="M591 553c0 -45 -10 -136 -70 -229c-146 -227 -342 -309 -503 -335c0 0 -16 -4 -15 14c1 10 13 12 13 12c17 1 191 33 313 150c80 78 127 142 155 218c-71 -76 -174 -104 -217 -104c-72 0 -126 44 -126 132c0 170 188 288 319 288c100 0 131 -69 131 -146zM511 534
c0 82 -22 129 -101 129c-70 0 -192 -76 -192 -216c0 -102 60 -118 100 -118c38 0 109 20 179 96c8 35 14 70 14 109z" />
    <glyph glyph-name="colon" unicode=":" horiz-adv-x="233" 
d="M153 68c0 17 -9 25 -30 25c-54 0 -71 -38 -71 -81c0 -21 10 -29 34 -29c51 0 67 48 67 85zM227 410c0 17 -9 25 -30 25c-54 0 -71 -38 -71 -81c0 -21 10 -29 34 -29c51 0 67 48 67 85z" />
    <glyph glyph-name="semicolon" unicode=";" horiz-adv-x="233" 
d="M142 18c-10 -139 -145 -240 -172 -240c-10 0 -6 2 -6 8c1 12 46 31 72 69c18 26 26 59 28 88c3 39 -14 52 -11 90c1 17 15 29 26 38c21 17 29 21 39 21c18 0 29 -13 24 -74zM227 410c0 -37 -16 -85 -67 -85c-24 0 -34 8 -34 29c0 43 17 81 71 81c21 0 30 -8 30 -25z" />
    <glyph glyph-name="less" unicode="&#x3c;" horiz-adv-x="513" 
d="M463 579c0 -12 -19 -21 -34 -32l-309 -227s169 -135 274 -198c-11 -19 -14 -44 -36 -44c-19 0 -309 230 -309 230l385 279c6 4 10 7 19 7c5 0 10 -5 10 -15z" />
    <glyph glyph-name="equal" unicode="=" horiz-adv-x="450" 
d="M413 348c0 -18 -19 -30 -54 -36c-15 -2 -47 -4 -97 -5c-49 -1 -105 0 -148 -2c-12 -1 -19 -1 -26 -1c-12 0 -17 3 -17 11c1 16 8 27 22 32c15 6 33 8 55 8h155l91 4c13 1 19 -3 19 -11zM392 208c0 -6 -7 -12 -21 -19c-12 -6 -31 -12 -62 -18c-12 -2 -36 -4 -75 -4
c-30 0 -80 0 -107 -2c-12 -1 -18 -1 -26 -1c-12 0 -18 3 -18 11c0 15 8 26 23 32s32 8 54 8h121l91 4c13 1 20 -1 20 -11z" />
    <glyph glyph-name="greater" unicode="&#x3e;" horiz-adv-x="491" 
d="M49 93c0 12 19 21 34 32l309 227s-169 135 -274 198c11 19 14 44 36 44c19 0 309 -230 309 -230l-385 -279c-6 -4 -10 -7 -19 -7c-5 0 -10 5 -10 15z" />
    <glyph glyph-name="question" unicode="?" horiz-adv-x="473" 
d="M483 588c-6 -88 -99 -175 -184 -256c-73 -70 -97 -108 -99 -135c-1 -15 -40 -40 -57 -40c-7 0 -7 5 -6 11c4 29 21 51 116 154c60 65 137 128 144 232c6 84 -20 117 -65 117c-81 0 -155 -44 -162 -145c-2 -22 -14 -18 -25 -18c-16 0 -19 7 -18 28c4 53 97 165 233 165
c57 0 131 -8 123 -113zM169 67c0 -37 -16 -85 -67 -85c-24 0 -34 8 -34 29c0 43 17 81 71 81c21 0 30 -8 30 -25z" />
    <glyph glyph-name="at" unicode="@" horiz-adv-x="888" 
d="M912 475c0 -187 -127 -335 -271 -407c-32 -16 -55 -24 -88 -24c-31 0 -40 32 -40 69c0 8 2 30 21 96c-82 -106 -148 -160 -193 -161c-39 -1 -55 35 -52 78c4 73 41 143 110 211c62 61 122 96 183 105c4 0 14 1 31 4c16 2 27 3 32 4c16 0 23 -3 23 -10
c0 -12 -12 -23 -32 -23c-11 0 -39 4 -50 4c-16 0 -27 -3 -40 -9c-39 -18 -100 -75 -141 -148c-23 -40 -33 -80 -36 -116c-2 -31 6 -49 19 -49c17 0 52 26 104 90c26 33 47 62 63 92c10 25 27 77 42 95c16 19 32 27 62 30c5 0 6 -2 7 -7c0 -8 -29 -73 -44 -121
c-19 -62 -40 -136 -41 -161c-1 -15 4 -31 22 -31c96 0 262 182 262 373c0 155 -79 255 -238 255c-250 0 -518 -218 -518 -595c0 -195 126 -304 289 -304c155 0 306 113 380 213c6 8 13 12 19 13c7 0 10 -4 10 -14c0 -5 -5 -13 -10 -19c-120 -136 -215 -217 -426 -217
c-174 0 -319 125 -319 356c0 362 305 585 567 585c208 0 293 -95 293 -257z" />
    <glyph glyph-name="A" unicode="A" horiz-adv-x="590" 
d="M644 678c0 -14 -24 -79 -57 -181c-18 -54 -46 -141 -68 -214c16 -1 53 -1 76 -3c-12 -24 -42 -33 -86 -37c0 0 -26 -94 -40 -147c-14 -54 -34 -72 -60 -72c-31 0 -59 90 -94 128c-42 46 -83 55 -106 58c-29 -45 -146 -231 -168 -234c-19 2 -20 2 -20 22
c0 30 88 160 122 218c-16 1 -28 -4 -58 -4c-34 0 -38 10 -38 30c0 30 32 41 74 42c20 0 45 1 69 0c105 136 280 308 417 406c0 0 7 4 19 4s18 -5 18 -16zM547 615c-41 -34 -155 -152 -287 -336c54 3 127 -2 181 1c19 59 48 149 75 231c24 73 31 95 31 104zM464 555l-2 1
c-78 -69 -171 -168 -248 -274h7s104 123 243 273zM432 235c-54 0 -54 -3 -113 1c0 0 64 -39 90 -80c5 12 3 1 23 79z" />
    <glyph glyph-name="B" unicode="B" horiz-adv-x="581" 
d="M589 604c0 -85 -189 -170 -189 -200c0 -46 176 -124 176 -230c0 -118 -133 -184 -276 -184c-71 0 -129 28 -150 42c-18 -24 -38 -40 -65 -40c-6 0 -14 3 -14 10c0 15 15 54 20 68c-6 11 -13 18 -13 40c0 36 31 34 39 33c0 0 87 278 156 433c44 67 85 58 85 58
c-21 -51 -70 -188 -111 -308c-33 -96 -77 -242 -77 -242c22 -31 93 -68 145 -68c114 0 189 29 189 126c0 90 -75 132 -114 166c-32 28 -54 43 -54 68c0 37 45 56 66 70c63 42 112 80 112 136c0 62 -38 88 -102 88c-84 0 -175 -28 -258 -112c-31 -31 -16 -66 -44 -66
c-14 0 -28 -1 -28 22c0 67 198 187 370 187c83 0 137 -28 137 -97z" />
    <glyph glyph-name="C" unicode="C" horiz-adv-x="477" 
d="M537 650c0 -27 -11 -51 -36 -77c-11 -12 -48 -42 -72 -42c-4 0 -6 2 -6 7c21 18 35 47 35 80c0 21 -20 28 -42 28c-121 0 -292 -205 -292 -433c0 -111 38 -179 131 -179c127 0 229 109 247 109c5 0 7 -5 5 -15c-2 -11 -91 -85 -212 -129c-34 -12 -74 -19 -107 -19
c-79 0 -138 53 -138 156c0 68 10 130 45 215c58 143 147 247 249 309c46 28 91 42 125 42c31 0 68 -9 68 -52z" />
    <glyph glyph-name="D" unicode="D" horiz-adv-x="792" 
d="M798 262c0 -86 -88 -188 -175 -230c-109 -53 -202 -53 -314 -53c-60 0 -70 -1 -81 -1c-14 0 -31 0 -31 10c0 7 30 47 59 112c115 258 209 451 236 500c-43 26 -123 62 -218 62c-50 0 -94 -14 -118 -38c-35 -36 -35 -76 -35 -85c0 -18 15 -36 15 -51
c0 -17 -21 -42 -35 -42c-16 0 -27 9 -27 37c0 55 16 113 72 161c43 37 122 61 161 61c105 0 166 -19 218 -47c19 29 74 122 98 122c6 0 16 2 16 -9c0 -13 -16 -34 -34 -62c-17 -26 -42 -61 -46 -69c124 -80 239 -203 239 -378zM724 236c0 141 -83 266 -201 342
c-63 -105 -204 -421 -238 -526c0 0 29 -3 102 -3c56 0 197 -12 264 31c55 36 73 111 73 156z" />
    <glyph glyph-name="E" unicode="E" horiz-adv-x="546" 
d="M614 670c0 -43 -38 -68 -68 -77l-6 3c14 16 14 32 14 43c0 26 -29 47 -86 47c-119 0 -185 -82 -185 -154c0 -110 137 -113 137 -136c0 -16 -18 -31 -40 -35c-113 0 -242 -69 -242 -205c0 -81 42 -144 145 -144c139 0 264 93 301 122l11 -14c-43 -36 -203 -145 -364 -145
c-120 0 -183 54 -183 142c0 157 220 261 261 265c-29 13 -96 47 -96 116c0 123 158 224 317 224c41 0 84 -14 84 -52z" />
    <glyph glyph-name="F" unicode="F" horiz-adv-x="518" 
d="M626 663c0 -44 -72 -79 -108 -87l-3 7c30 17 35 32 35 46c0 18 -27 26 -78 26c-36 0 -91 -10 -107 -13c-25 -98 -73 -266 -73 -266s66 -2 109 1c47 3 79 11 92 11c4 0 6 -1 6 -3c0 -22 -67 -40 -133 -50c-18 -3 -61 -7 -92 -7c-73 -208 -151 -356 -197 -356
c-31 0 -42 46 -42 99l7 1c9 -11 22 -20 41 -20c22 0 65 19 125 271c0 0 -9 -1 -20 -3c-8 -1 -23 -6 -28 -6s-6 1 -6 6c0 15 21 36 33 43c10 6 21 9 35 10c0 0 60 200 72 253c-142 -32 -194 -66 -221 -85c-12 -9 -16 -18 -28 -18c-10 0 -18 3 -18 17c0 29 332 159 522 159
c49 0 77 -9 77 -36z" />
    <glyph glyph-name="G" unicode="G" horiz-adv-x="525" 
d="M594 309c-6 -22 -35 -46 -85 -49c-37 -2 -55 0 -55 0c0 -69 -100 -280 -266 -280c-93 0 -144 57 -144 174c0 230 247 548 447 548c27 0 64 -6 64 -54c0 -54 -53 -97 -71 -97c-4 0 -6 4 -6 7c0 6 8 12 8 47c0 31 -23 41 -48 41c-153 0 -300 -232 -314 -433
c-8 -111 18 -198 96 -198c118 0 172 183 169 245c-24 -1 -57 -8 -57 21c0 21 20 32 38 32c33 0 47 -4 78 -5c34 -1 50 -2 78 -2c30 0 53 2 68 3z" />
    <glyph glyph-name="H" unicode="H" horiz-adv-x="569" 
d="M621 132c-35 -33 -72 -70 -125 -104c-59 -38 -81 -44 -108 -44c-49 0 -56 44 -56 72c0 73 60 280 78 336c0 0 -129 -86 -205 -86c-29 0 -44 5 -44 5c-15 -47 -68 -253 -86 -282c-17 -28 -40 -37 -52 -37c-25 0 -28 11 -28 33c0 15 39 133 56 177l51 131
c-7 8 -12 19 -12 41c0 23 23 50 46 49c0 0 63 195 80 219c32 45 51 40 63 40c6 0 8 -4 8 -14c0 -18 -15 -54 -33 -102l-64 -168s6 -30 68 -30c76 0 155 56 164 72c10 26 18 65 28 95c32 98 57 120 72 130s33 18 41 18c10 0 9 -6 9 -16c0 -15 -35 -98 -76 -213
c-40 -114 -89 -284 -89 -377c0 -11 0 -43 31 -43c51 0 107 52 173 114z" />
    <glyph glyph-name="I" unicode="I" horiz-adv-x="328" 
d="M358 696c0 -6 -14 -24 -54 -128c-36 -93 -64 -168 -110 -303c-14 -42 -32 -89 -46 -141c-9 -34 -15 -70 -26 -93c-7 -14 -48 -57 -75 -57c-12 0 -21 1 -21 14c0 17 28 90 35 112c25 73 53 161 90 264c48 132 77 212 89 242c18 44 27 67 31 72c11 12 22 20 50 25
c8 2 21 2 31 2c5 0 6 -5 6 -9z" />
    <glyph glyph-name="J" unicode="J" horiz-adv-x="328" 
d="M362 696c0 -7 -26 -47 -96 -236c-20 -54 -24 -68 -51 -144c-45 -126 -77 -213 -133 -286c-28 -37 -98 -96 -139 -96c-8 0 -6 5 -7 9c0 3 33 20 46 34c36 38 45 58 66 110c18 45 51 133 103 277l85 234c9 24 14 39 17 46c20 46 28 48 51 56c7 2 36 5 52 5c4 0 6 -2 6 -9z
" />
    <glyph glyph-name="K" unicode="K" horiz-adv-x="612" 
d="M651 662c0 -42 -51 -91 -97 -113l-4 6c13 14 24 32 24 48c0 13 -8 18 -20 18c-24 0 -66 -19 -110 -62c-57 -56 -136 -142 -136 -142s11 -21 22 -56c20 -65 47 -141 66 -192c33 -89 70 -151 114 -151c37 0 64 15 110 54l7 -21c-68 -67 -123 -92 -179 -92
c-39 0 -91 34 -132 148c-32 89 -64 199 -76 229c-11 -19 -46 -55 -75 -129c-20 -50 -36 -107 -36 -107c-7 -20 -10 -38 -15 -47c-3 -7 -7 -14 -12 -20c-11 -14 -35 -32 -53 -32c-15 0 -21 6 -21 18c0 13 32 113 69 232c35 112 74 243 105 335c10 29 28 77 38 92
c17 23 58 35 77 35c4 0 4 -5 4 -13c0 -12 -21 -52 -31 -78c-26 -70 -88 -264 -103 -319l3 -1l40 54c2 13 5 36 27 58c9 9 23 13 30 13c66 74 108 118 160 170c54 53 124 87 168 87c11 0 36 -1 36 -22z" />
    <glyph glyph-name="L" unicode="L" horiz-adv-x="386" 
d="M364 21c0 -6 -6 -12 -20 -19s-34 -14 -62 -18c-12 -2 -37 -3 -78 -4c-39 -1 -77 0 -115 -2c-10 0 -20 1 -31 -1c0 0 -11 -3 -18 -3c-10 0 -14 7 -14 14c0 14 10 42 35 112l174 484c13 37 25 63 41 79c21 21 51 42 80 42c4 0 6 -3 6 -9c0 -7 -29 -62 -54 -128
c-42 -109 -96 -262 -110 -303c-17 -48 -46 -142 -73 -237h129c64 0 87 5 98 5c8 0 12 -4 12 -12z" />
    <glyph glyph-name="M" unicode="M" horiz-adv-x="819" 
d="M877 136c-36 -27 -63 -48 -127 -86c-89 -53 -125 -66 -146 -66c-32 0 -34 24 -34 40c0 49 112 379 112 379l-4 1c-52 -67 -131 -170 -268 -328c-22 -25 -66 -75 -86 -75c-17 0 -19 9 -19 26c0 32 62 237 95 365l16 63l-5 2c-15 -28 -146 -232 -196 -297
c-104 -136 -153 -168 -199 -168c-39 0 -41 40 -41 57c0 48 32 88 63 104l6 -1c-2 -29 0 -70 28 -70c22 0 62 24 138 122c67 86 180 267 220 350c21 57 18 58 34 86c11 18 32 32 48 32c23 0 34 3 34 -16c0 -44 -23 -88 -42 -148c-40 -124 -89 -305 -96 -339
c-2 -8 -13 -49 -5 -49c14 0 222 241 315 404c25 71 32 104 58 138c20 26 40 31 60 31c14 0 15 -14 15 -33c0 -30 -44 -130 -68 -170c-23 -66 -126 -373 -126 -395c0 -17 -14 -41 25 -41c40 0 118 52 185 98z" />
    <glyph glyph-name="N" unicode="N" horiz-adv-x="571" 
d="M621 696c0 -7 -29 -78 -47 -128c-34 -96 -62 -183 -97 -303c-28 -96 -48 -196 -61 -218c-15 -26 -32 -49 -47 -63c-8 -7 -14 -10 -23 -10c-15 0 -23 14 -31 45c-7 28 -26 141 -37 230c-16 129 -28 221 -40 329c-9 -24 -61 -166 -101 -313c-38 -140 -57 -218 -57 -218
c-7 -18 -5 -28 -27 -44c-6 -4 -24 -14 -37 -14c-6 0 -7 4 -7 10c0 7 6 23 10 35c28 80 109 348 174 564c9 31 25 74 30 79c3 4 6 8 11 12c6 5 24 16 42 16c7 0 13 0 17 -1c5 -1 12 -9 13 -18c3 -21 5 -34 7 -55c5 -48 19 -172 33 -284c10 -77 29 -183 40 -233
c0 0 96 326 143 486c9 29 18 69 25 77c6 11 20 23 44 27c7 1 11 1 18 1c5 0 5 -3 5 -9z" />
    <glyph glyph-name="O" unicode="O" horiz-adv-x="663" 
d="M642 532c0 -80 -20 -205 -110 -335c-91 -131 -205 -215 -330 -215c-100 0 -144 88 -144 168c0 217 145 383 220 428c45 88 133 130 218 130c108 0 146 -92 146 -176zM564 512c0 59 -15 157 -114 157c-67 0 -114 -43 -130 -75c36 23 86 39 117 39c28 0 40 -2 40 -15
c0 -6 -3 -8 -7 -8c-10 0 -17 6 -33 6c-37 0 -98 -20 -129 -53c-2 -11 1 -16 -2 -27c-4 -13 -19 -16 -30 -16c-9 0 -10 12 -8 20c-50 -55 -122 -148 -122 -338c0 -83 28 -165 122 -165c71 0 135 47 192 126c66 91 104 243 104 349z" />
    <glyph glyph-name="P" unicode="P" horiz-adv-x="643" 
d="M708 582c0 -140 -192 -279 -382 -292c-21 -68 -39 -110 -46 -154c-6 -38 -2 -57 -2 -76c0 -5 -11 -31 -18 -40c-15 -20 -31 -36 -56 -36c-8 0 -21 8 -21 31c0 46 21 111 43 175c11 32 33 93 33 93c-36 1 -58 9 -58 24c0 12 0 32 15 33c12 0 14 -14 28 -21
c12 -6 28 -5 28 -5c33 89 66 180 108 294c38 35 80 26 80 26c-13 -43 -87 -216 -122 -318c140 4 294 111 294 242c0 69 -52 112 -159 112c-144 0 -309 -57 -373 -130c-20 -23 -5 -54 -30 -54c-14 0 -28 -1 -28 22c0 49 238 204 476 204c142 0 190 -54 190 -130z" />
    <glyph glyph-name="Q" unicode="Q" horiz-adv-x="619" 
d="M637 546c-4 -56 -16 -114 -39 -173c-53 -138 -157 -277 -267 -344c20 -28 36 -55 56 -82c23 -31 43 -52 61 -67c-8 -12 -19 -20 -50 -20c-21 0 -47 15 -73 52c-17 24 -36 57 -55 87c-31 -11 -61 -17 -91 -17c-100 -1 -148 50 -141 152c10 137 114 331 264 462
c54 47 121 85 166 85c24 9 45 18 85 18c60 0 91 -59 84 -153zM552 507c7 94 -16 133 -74 133c-54 0 -99 -23 -147 -62c-91 -76 -196 -256 -207 -415c-6 -82 34 -132 99 -129l23 1c-8 14 -13 19 -22 27c5 10 22 14 52 14c10 0 25 -7 36 -19c83 36 145 129 194 256
c26 68 41 132 46 194z" />
    <glyph glyph-name="R" unicode="R" horiz-adv-x="571" 
d="M582 610c0 -155 -253 -244 -253 -306c0 -45 39 -101 75 -160c30 -49 60 -86 88 -117c20 -23 35 -35 35 -39c0 -12 -14 -16 -35 -16c-59 0 -111 58 -152 124c-44 70 -89 149 -89 181c0 10 1 18 21 36c30 28 228 144 228 265c0 62 -49 93 -143 93c-81 0 -229 -36 -289 -111
c-18 -23 -12 -62 -38 -62c-14 0 -20 -3 -20 20c0 49 186 194 390 194c148 0 182 -51 182 -102zM324 634c-66 -190 -153 -451 -171 -502c-1 -6 -5 -18 -9 -36c-7 -32 -10 -46 -21 -63c-14 -22 -54 -53 -75 -53c-14 0 -21 4 -21 14c0 19 16 58 28 96c28 84 50 130 189 518
c38 35 80 26 80 26z" />
    <glyph glyph-name="S" unicode="S" horiz-adv-x="497" 
d="M540 666c4 -11 3 -34 -11 -53c-8 -10 -26 -28 -45 -33c0 20 -7 47 -28 66c-19 18 -43 28 -72 28c-71 0 -146 -44 -152 -130c-7 -100 102 -154 169 -226c33 -35 50 -77 48 -112c-10 -135 -155 -230 -308 -230c-59 0 -152 28 -149 93c2 41 33 75 80 76
c-5 -70 17 -123 119 -123c122 0 178 94 182 148c2 34 -15 72 -53 105c-51 45 -103 97 -121 116c-32 35 -45 73 -42 115c7 106 121 208 254 208c70 0 114 -23 129 -48z" />
    <glyph glyph-name="T" unicode="T" horiz-adv-x="474" 
d="M624 655c0 -34 -70 -66 -108 -77l-3 7c22 13 35 30 35 50c0 16 -27 22 -78 22c-17 0 -70 -5 -107 -13c-22 -96 -55 -217 -117 -359c-104 -238 -159 -319 -205 -319c-31 0 -42 46 -42 99l7 1c9 -11 22 -20 41 -20c22 0 66 -10 155 268c51 159 79 271 90 314
c-209 -47 -226 -100 -247 -100c-14 0 -20 -1 -20 14c0 29 333 159 512 159c55 0 87 -13 87 -46z" />
    <glyph glyph-name="U" unicode="U" horiz-adv-x="743" 
d="M778 104c-123 -102 -206 -138 -242 -138c-43 0 -46 31 -46 58c0 66 60 255 118 436c-52 -64 -66 -82 -235 -275c-69 -78 -112 -126 -174 -181c-6 -6 -15 -11 -30 -17c-12 -5 -22 -8 -32 -9c-10 0 -16 4 -21 14c-3 9 -4 20 -3 35c1 14 13 51 37 113
c111 281 111 271 159 417c13 39 12 43 12 56c0 15 -2 28 -26 28c-43 0 -106 -44 -117 -53c-25 -21 -55 -43 -82 -82c-28 -41 -12 -98 -50 -98c-12 0 -22 4 -22 16c0 65 109 163 164 198c67 43 121 72 182 72c31 0 31 -31 31 -58c0 -25 -25 -126 -105 -326
c-36 -91 -69 -185 -70 -203c-1 -7 1 -10 6 -11c16 0 61 36 128 112c27 31 140 161 234 288c47 64 48 66 69 100c20 31 36 40 54 50c13 7 37 6 43 6c5 0 8 -2 8 -9c-1 -7 -6 -13 -17 -37c-37 -78 -61 -143 -103 -256c-27 -73 -76 -237 -76 -300c0 -11 -1 -30 26 -30
c43 0 118 54 170 100z" />
    <glyph glyph-name="V" unicode="V" horiz-adv-x="546" 
d="M736 681c-1 -6 -1 -10 -2 -13c-3 -17 -16 -62 -53 -130c-154 -282 -346 -482 -414 -536c-15 -12 -38 -28 -60 -28c-18 0 -20 20 -20 43c0 37 47 204 91 362c12 44 53 190 53 234c0 14 -2 28 -26 28c-54 0 -149 -72 -189 -138c-26 -43 -16 -95 -50 -95c-12 0 -22 4 -22 16
c0 62 106 163 161 198c67 43 114 72 175 72c31 0 31 -31 31 -58c0 -25 -19 -106 -34 -164c-38 -148 -93 -344 -93 -369c0 -10 6 -15 12 -15c27 0 188 180 310 398c48 86 46 139 47 165c14 17 46 41 69 41c9 0 13 -3 14 -11z" />
    <glyph glyph-name="W" unicode="W" horiz-adv-x="952" 
d="M1047 685c-1 -6 -1 -10 -2 -13c-3 -17 -29 -81 -53 -130c-115 -233 -304 -446 -386 -538c-25 -28 -62 -52 -84 -52c-18 0 -17 18 -17 28c0 24 7 63 17 109c31 144 116 453 116 453l-5 2c-31 -51 -86 -138 -135 -210c-80 -118 -158 -214 -240 -306
c-25 -28 -62 -52 -84 -52c-18 0 -17 18 -17 28c0 24 7 63 17 109c27 122 126 451 126 500c0 15 -2 28 -26 28c-58 0 -131 -68 -157 -119c-25 -49 -15 -98 -50 -98c-12 0 -22 4 -22 16c0 106 198 254 304 254c31 0 31 -31 31 -58c0 -11 -48 -217 -87 -359
c-20 -73 -50 -187 -30 -187c27 0 148 166 211 260c69 103 138 216 177 271c29 23 47 27 59 30c10 0 14 -11 14 -19c0 -17 -3 -33 -6 -46c-37 -141 -69 -244 -106 -412c-9 -41 -21 -108 -1 -108c27 0 147 167 211 260c45 66 74 132 110 216c12 29 19 78 32 113
c14 17 46 41 69 41c9 0 13 -3 14 -11z" />
    <glyph glyph-name="X" unicode="X" horiz-adv-x="505" 
d="M552 117c-46 -39 -136 -125 -224 -125c-66 0 -108 87 -130 267c-23 -29 -61 -73 -106 -159c-28 -54 -43 -132 -60 -132c-20 0 -26 14 -26 31c12 28 84 165 182 292c-20 138 -31 220 -34 247c-4 35 -12 47 -20 52c-9 5 -22 0 -22 16c0 15 17 50 34 72c11 15 23 22 30 22
c12 0 28 1 37 -49c14 -80 22 -207 34 -285c67 96 153 201 192 250c31 39 62 75 77 75c9 0 21 -3 21 -22c0 -36 -23 -38 -78 -95c-34 -35 -147 -161 -203 -247c30 -202 62 -283 120 -283c52 0 127 50 166 89z" />
    <glyph glyph-name="Y" unicode="Y" horiz-adv-x="623" 
d="M693 683c0 -44 -45 -104 -70 -145c-37 -108 -69 -208 -110 -294c-78 -166 -204 -267 -347 -267c-55 0 -87 11 -86 31c0 3 3 20 19 20c23 0 22 -31 59 -31c112 0 172 46 251 179c39 66 69 152 119 275l-3 1c-29 -36 -128 -116 -204 -170c-19 -13 -64 -34 -95 -34
c-17 0 -21 12 -21 39c0 23 41 123 66 181c30 67 51 139 51 167c0 15 -2 28 -26 28c-43 0 -106 -44 -117 -53c-25 -21 -55 -43 -82 -82c-28 -41 -12 -98 -50 -98c-12 0 -22 4 -22 16c0 65 109 163 164 198c67 43 121 72 182 72c31 0 31 -31 31 -58c0 -33 -29 -113 -50 -171
c-18 -49 -52 -141 -52 -153c0 -7 4 -11 13 -11c10 0 16 4 29 10c58 25 169 134 211 204c12 37 24 67 36 92c12 24 22 39 31 47c18 15 37 22 60 23c9 0 13 -5 13 -16z" />
    <glyph glyph-name="Z" unicode="Z" horiz-adv-x="531" 
d="M642 667c0 -13 -12 -33 -37 -60c-160 -170 -146 -165 -239 -262c-60 -63 -201 -212 -267 -303c55 9 161 36 235 36c52 0 97 -1 118 -7c15 -4 22 -8 22 -18c0 -17 -22 -49 -46 -62c-21 9 -79 19 -138 19c-39 0 -144 -16 -188 -24c-20 -4 -48 -6 -52 -6c-17 0 -25 6 -25 19
c1 11 20 38 57 83c52 62 139 154 229 251c253 270 235 255 256 284c-47 5 -159 -4 -274 -21c-52 -8 -79 -12 -83 -12c-6 0 -13 3 -13 12c25 28 71 66 164 82c26 5 58 6 97 6c59 0 124 0 159 -4c17 -2 25 -6 25 -13z" />
    <glyph glyph-name="bracketleft" unicode="[" horiz-adv-x="388" 
d="M489 710c0 -17 -47 -31 -80 -37c-17 -3 -39 -4 -57 -5c-8 -21 -18 -51 -31 -89c-11 -31 -39 -142 -52 -200c-22 -100 -77 -325 -103 -432c-12 -52 -18 -89 -30 -106h17c35 0 84 4 91 4c17 0 20 -6 20 -11c0 -17 -47 -31 -80 -37c-34 -6 -92 -6 -92 -6
c-18 -1 -44 -7 -44 10c0 14 8 34 17 63s13 48 16 59c19 74 66 280 89 384c30 134 81 306 81 306c5 18 10 32 15 46c2 6 5 11 7 16c14 31 34 45 62 45c11 0 28 -1 29 -3h14c35 0 84 4 91 4c17 0 20 -6 20 -11z" />
    <glyph glyph-name="backslash" unicode="\" horiz-adv-x="369" 
d="M370 -70c0 -11 -7 -18 -22 -18c-11 0 -13 -3 -23 16l-283 816c9 15 21 25 38 24c28 -37 280 -803 290 -838z" />
    <glyph glyph-name="bracketright" unicode="]" horiz-adv-x="384" 
d="M-43 -200c0 17 47 31 80 37c17 3 39 4 57 5c8 21 18 51 31 89c11 31 39 142 52 200c22 100 77 325 103 432c12 52 18 89 30 106h-17c-35 0 -84 -4 -91 -4c-17 0 -20 6 -20 11c0 17 47 31 80 37c34 6 92 6 92 6c18 1 44 7 44 -10c0 -14 -8 -34 -17 -63s-13 -48 -16 -59
c-19 -74 -66 -280 -89 -384c-30 -134 -81 -306 -81 -306c-5 -18 -10 -32 -15 -46c-2 -6 -5 -11 -7 -16c-14 -31 -34 -45 -62 -45c-11 0 -28 1 -29 3h-14c-35 0 -84 -4 -91 -4c-17 0 -20 6 -20 11z" />
    <glyph glyph-name="asciicircum" unicode="^" horiz-adv-x="434" 
d="M402 540c2 -13 -17 -34 -29 -34c-6 0 -8 0 -13 5l-135 125l-117 -119s-4 -11 -13 -11c-14 0 -14 15 -6 25l151 154l6 1s111 -95 156 -146z" />
    <glyph glyph-name="underscore" unicode="_" horiz-adv-x="563" 
d="M574 -116h-581v40h581v-40z" />
    <glyph glyph-name="grave" unicode="`" horiz-adv-x="273" 
d="M273 582c0 -10 -16 -31 -35 -33c-11 4 -34 34 -70 84c-10 14 -36 51 -36 61c0 9 23 24 42 24c7 0 26 -34 50 -70c20 -30 49 -58 49 -66z" />
    <glyph glyph-name="a" unicode="a" horiz-adv-x="492" 
d="M526 123c-62 -55 -197 -155 -247 -155c-20 0 -31 19 -31 44c0 28 8 76 14 98h-4c-60 -74 -133 -121 -187 -121c-50 0 -62 35 -62 89c0 73 44 184 115 252c86 82 163 109 236 109c26 0 90 -12 90 -57c0 -29 -8 -36 -35 -61c-11 -29 -25 -48 -41 -91
c-31 -83 -54 -150 -54 -163c0 -29 9 -35 19 -35c48 0 116 57 178 103zM383 372c-4 20 -44 32 -56 32c-70 0 -120 -28 -179 -116c-32 -48 -59 -140 -59 -181c0 -43 21 -55 39 -55c45 0 109 43 155 142c20 43 29 80 42 110c9 22 37 69 58 68z" />
    <glyph glyph-name="b" unicode="b" horiz-adv-x="421" 
d="M489 718c0 -40 -53 -134 -211 -268c-40 -34 -88 -74 -126 -106c0 0 -25 -64 -34 -89h3c52 76 136 110 177 110c66 0 83 -38 83 -93s-40 -157 -113 -220c49 0 141 45 182 74l1 -20c-47 -32 -134 -72 -207 -77c-29 -27 -82 -61 -133 -61c-86 0 -94 71 -94 124
c0 42 25 131 50 202c-8 -4 -13 -4 -13 6c0 9 22 21 22 21c33 84 87 198 121 249c97 143 181 200 242 200c51 0 50 -31 50 -52zM421 686c0 27 -7 38 -32 38c-58 0 -144 -125 -227 -342c25 23 73 56 130 113c83 83 129 134 129 191zM304 240c0 58 -16 77 -52 77
c-44 0 -122 -49 -122 -163c0 -83 38 -106 93 -103c8 7 16 16 24 27c42 56 57 132 57 162zM194 27c-54 -3 -80 26 -95 58l-3 -1c-2 -46 24 -75 51 -75c25 0 47 18 47 18z" />
    <glyph glyph-name="c" unicode="c" horiz-adv-x="373" 
d="M417 117c0 -10 -170 -132 -303 -132c-65 0 -106 34 -106 117c0 72 47 172 125 252c69 72 161 111 200 111c22 0 45 -2 45 -38c0 -18 -7 -57 -34 -79c-23 -19 -44 -23 -53 -23c-4 0 -6 2 -8 6l10 22c11 24 10 33 10 40c0 14 -5 21 -21 21c-85 0 -184 -144 -184 -272
c0 -46 6 -109 73 -109c38 0 83 14 107 24c76 33 123 73 127 73c5 0 13 1 12 -13z" />
    <glyph glyph-name="d" unicode="d" horiz-adv-x="534" 
d="M582 119c-82 -71 -209 -129 -245 -129c-30 0 -42 15 -42 60c0 20 11 75 19 111l-3 1c-30 -40 -64 -77 -110 -118c-55 -50 -84 -59 -110 -63c-44 0 -66 33 -62 85c6 88 47 171 122 249c70 73 145 116 225 125l35 4s69 185 77 216c4 14 12 23 28 34c28 20 57 20 57 20
c5 0 9 -3 9 -10c0 0 -25 -60 -41 -104c-49 -135 -37 -100 -80 -219c-32 -90 -72 -203 -79 -232c-6 -25 -13 -50 -13 -70c0 -11 6 -34 25 -34c47 0 129 51 180 91zM394 399h-36c-71 0 -145 -51 -195 -156c-25 -52 -38 -99 -42 -143c-2 -30 2 -45 18 -52c25 4 39 2 99 68
c28 30 76 80 98 136z" />
    <glyph glyph-name="e" unicode="e" horiz-adv-x="380" 
d="M429 104c-1 -10 -153 -119 -287 -119c-83 0 -126 39 -126 125c0 56 30 144 99 226c81 97 171 135 220 135c38 0 51 -9 51 -34c0 -32 -50 -85 -120 -151c-56 -53 -158 -146 -158 -146c-5 -84 31 -110 92 -110c105 0 224 93 224 93c5 -8 6 -10 5 -19zM301 392
c0 21 -15 24 -29 24c-25 0 -68 -20 -101 -62c-29 -37 -63 -111 -66 -181c0 0 70 58 120 109c44 45 76 81 76 110z" />
    <glyph glyph-name="f" unicode="f" horiz-adv-x="332" 
d="M503 690c-1 -11 -5 -21 -12 -30c-5 -8 -14 -14 -25 -18c-16 17 -39 34 -68 34c-21 0 -32 -5 -39 -10c-40 -28 -81 -118 -131 -283h48l91 4c12 1 18 -2 18 -7c-1 -6 -7 -12 -21 -19c-12 -6 -67 -26 -133 -26h-20l-28 -88c-48 -151 -79 -237 -125 -328
c-51 -102 -110 -173 -162 -206c-30 -19 -61 -34 -83 -34c-5 0 -9 1 -9 6c0 4 0 7 3 9c18 12 42 21 75 46c44 33 104 120 197 409l60 186s-30 2 -59 -2c-10 -1 -26 -1 -26 -1c-12 0 -17 3 -17 11c1 16 9 26 20 33c13 7 24 8 48 8c21 0 50 -1 50 -1c26 84 51 147 77 190
c20 34 44 63 74 87c38 32 93 52 140 52c38 0 57 -7 57 -22z" />
    <glyph glyph-name="g" unicode="g" horiz-adv-x="469" 
d="M483 382c0 -29 -8 -36 -35 -61c-11 -29 -28 -54 -41 -91c-59 -163 -123 -337 -157 -398c-62 -112 -120 -174 -207 -219c-45 -23 -95 -35 -150 -35c-24 0 -41 1 -60 8c-13 5 -20 12 -20 21c1 3 4 4 11 4c27 -8 38 -10 58 -10c47 0 88 9 126 31c36 20 89 59 154 171
c48 82 106 221 133 307h-4c-60 -74 -133 -121 -187 -121c-50 0 -62 35 -62 89c0 76 44 184 115 252c86 82 163 109 236 109c26 0 90 -12 90 -57zM416 372c-4 20 -44 32 -56 32c-70 0 -120 -28 -179 -116c-32 -48 -59 -140 -59 -181c0 -43 21 -55 39 -55c45 0 109 43 155 142
c20 43 29 80 42 110c9 22 37 69 58 68z" />
    <glyph glyph-name="h" unicode="h" horiz-adv-x="436" 
d="M491 123c-22 -21 -85 -58 -118 -79c-68 -44 -117 -67 -137 -67c-12 0 -13 10 -13 21c0 21 24 103 43 166c23 77 47 148 49 174c0 7 3 12 -12 12c-17 0 -86 -64 -146 -137c-37 -45 -62 -102 -81 -141c-38 -79 -53 -89 -75 -89c-13 0 -13 15 -13 19c0 15 5 36 19 66
c11 23 21 57 27 73c0 0 65 189 115 331c31 86 63 170 79 218c5 14 12 23 28 34c28 20 57 20 57 20c5 0 9 -3 9 -10c0 0 -25 -60 -41 -104c-49 -135 -105 -276 -156 -412h3c148 164 241 213 269 213c11 0 13 -9 12 -19c-2 -34 -26 -105 -53 -193c-9 -31 -45 -141 -46 -155
c0 -9 -4 -15 9 -15c30 0 101 46 163 86z" />
    <glyph glyph-name="i" unicode="i" horiz-adv-x="303" 
d="M273 591c0 -34 -22 -63 -67 -63c-23 0 -33 14 -33 42c0 40 20 67 70 68c22 1 30 -10 30 -47zM389 164c-43 -32 -109 -81 -156 -110c-109 -67 -158 -76 -178 -76c-38 0 -40 29 -40 48c0 21 16 85 31 131c30 91 64 189 87 255c4 12 16 27 40 36c14 5 30 7 39 7
c6 0 8 -3 8 -11c0 -11 -26 -75 -44 -129c-32 -97 -80 -226 -80 -249c0 -21 -1 -36 21 -36c60 0 221 114 270 158z" />
    <glyph glyph-name="j" unicode="j" horiz-adv-x="230" 
d="M273 591c0 -34 -22 -63 -67 -63c-23 0 -33 14 -33 42c0 40 20 67 70 68c22 1 30 -10 30 -47zM227 444c0 -14 -27 -80 -44 -129c-34 -100 -88 -239 -88 -239c-29 -79 -69 -185 -131 -268c-46 -62 -94 -101 -140 -122c-14 -6 -26 -9 -35 -9c-7 0 -11 2 -11 8
c0 10 22 12 33 19c83 58 126 148 189 307c41 102 117 312 140 401c3 12 19 29 40 36c14 5 29 7 39 7c6 0 8 -3 8 -11z" />
    <glyph glyph-name="k" unicode="k" horiz-adv-x="502" 
d="M546 79c-71 -60 -164 -119 -236 -119c-49 0 -97 30 -120 117c-12 45 -26 112 -30 138c-10 -14 -20 -26 -31 -51c-17 -40 -35 -85 -35 -85c-12 -30 -14 -41 -27 -53c-10 -9 -41 -25 -55 -25c-16 0 -21 4 -21 14c0 11 6 23 22 65c15 40 23 66 40 112
c127 349 175 477 175 504c0 6 -1 10 -1 16c1 8 6 24 58 41c18 6 21 6 39 7c6 0 11 -3 9 -9c0 0 -120 -335 -128 -357c-21 -55 -42 -104 -56 -147l5 -1c59 67 64 75 148 142c53 42 122 69 165 69c10 0 36 -2 36 -23c0 -35 -32 -64 -105 -110l-4 7c25 19 33 49 33 62
c0 10 -8 14 -20 14c-24 0 -65 -15 -108 -49c-56 -44 -89 -85 -89 -85s11 1 16 1c7 0 15 -3 18 -19c7 -37 16 -90 26 -133c15 -66 42 -108 93 -108c72 0 136 52 174 83z" />
    <glyph glyph-name="l" unicode="l" horiz-adv-x="373" 
d="M521 732c0 -108 -197 -381 -383 -543c-10 -21 -26 -84 -26 -102c0 -16 0 -52 36 -52c94 0 229 104 307 159l1 -26c-182 -138 -295 -186 -374 -186c-36 0 -52 25 -52 66c0 173 204 524 204 524c97 143 177 200 242 200c45 0 45 -20 45 -40zM455 692c0 24 -1 35 -27 35
c-34 0 -55 -25 -126 -143c-49 -82 -133 -313 -151 -357c56 46 304 328 304 465z" />
    <glyph glyph-name="m" unicode="m" horiz-adv-x="666" 
d="M694 123c0 0 -85 -58 -118 -79c-68 -44 -117 -67 -137 -67c-16 0 -17 15 -17 28s24 88 47 159c24 76 47 148 49 174c0 7 4 14 -4 14s-34 -19 -48 -33c-24 -24 -61 -63 -108 -127c-27 -36 -70 -118 -75 -123c-14 -12 -53 -49 -77 -49c-3 0 -4 1 -4 4c0 10 3 21 22 75
l63 180c12 34 19 60 20 71c0 6 -1 8 -5 9c-11 0 -39 -23 -82 -67c-77 -78 -136 -191 -164 -250c-10 -12 -42 -38 -65 -38c-9 0 -11 7 -11 15c0 10 13 47 23 74c27 73 40 114 55 167c8 29 27 97 37 120c17 40 67 63 86 63c5 0 7 -3 7 -11c-1 -10 -12 -45 -21 -73
c-23 -74 -67 -185 -67 -185l4 -3c28 46 85 120 130 163c67 64 119 108 150 107c9 0 16 -4 16 -19c0 -30 -52 -170 -67 -215h3c144 172 231 224 264 224c9 0 12 -9 12 -19c0 -23 -26 -105 -53 -193c-9 -31 -46 -138 -46 -155c0 -9 0 -15 9 -15c30 0 101 46 163 86z" />
    <glyph glyph-name="n" unicode="n" horiz-adv-x="464" 
d="M536 147c-22 -21 -111 -82 -144 -103c-68 -44 -114 -67 -137 -67c-10 0 -13 10 -13 21c0 21 24 103 43 166c25 81 47 157 47 168c0 13 0 19 -10 19c-17 0 -86 -65 -146 -138c-37 -45 -56 -78 -75 -117c-38 -79 -52 -89 -75 -89c-13 0 -13 13 -13 19c0 15 6 36 19 66
c10 23 18 40 21 49l40 138c10 34 24 89 28 103c12 43 67 63 86 63c5 0 7 -3 7 -11c-1 -10 -14 -46 -23 -74c-23 -74 -32 -97 -47 -142h3c116 125 226 213 269 213c11 0 13 -9 12 -19c-2 -34 -26 -105 -53 -193c-9 -31 -45 -141 -46 -155c0 -9 0 -15 9 -15
c34 0 131 70 189 110z" />
    <glyph glyph-name="o" unicode="o" horiz-adv-x="462" 
d="M501 110c-85 -61 -160 -104 -260 -104c-13 0 -24 1 -33 4c-32 -17 -65 -25 -99 -25c-47 0 -95 28 -95 109c0 37 7 66 19 106c19 64 51 129 76 154c9 9 25 18 43 18c13 0 18 -5 22 -9h3c44 39 86 82 165 82c51 0 89 -30 89 -108c0 -97 -80 -239 -183 -300
c1 -1 14 -4 35 -4c57 0 134 34 209 89zM351 304c0 48 -17 83 -68 83c-15 0 -48 -7 -71 -26c-26 -22 -69 -84 -76 -184c-1 -23 -4 -119 78 -133c85 42 137 174 137 260zM157 28c-64 40 -55 130 -50 172h-3c-4 -12 -11 -30 -14 -75c-6 -83 43 -97 57 -97h10z" />
    <glyph glyph-name="p" unicode="p" horiz-adv-x="436" 
d="M444 364c0 -124 -119 -276 -196 -329c-35 -24 -79 -49 -120 -49c-26 0 -35 13 -35 26c0 57 66 129 127 178c54 43 101 70 138 90c6 21 5 36 5 54c0 62 -29 75 -60 75c-30 0 -78 -29 -137 -92c-27 -62 -68 -182 -114 -314c-42 -120 -84 -243 -103 -309
c-1 -6 -2 -22 -4 -35c-2 -12 -9 -28 -32 -47c-14 -11 -29 -17 -45 -17c-10 0 -20 7 -20 26c0 12 4 36 22 83c0 0 92 245 152 406c35 93 53 148 86 240c14 38 29 88 39 98c20 20 51 32 57 32c5 0 9 0 9 -6c0 -7 -17 -63 -34 -107l5 -1c48 48 131 98 178 98
c55 0 82 -26 82 -100zM351 246c-21 -8 -82 -40 -123 -81c-35 -35 -72 -75 -72 -117c0 -11 9 -18 28 -18s42 9 66 33c30 30 82 98 101 183z" />
    <glyph glyph-name="q" unicode="q" horiz-adv-x="433" 
d="M471 421c0 -7 -18 -46 -29 -75c-29 -74 -161 -432 -161 -432c-19 -51 -28 -74 -46 -124c-15 -41 -29 -87 -30 -106c-1 -9 2 -15 1 -24c-1 -13 -3 -17 -11 -25c-16 -17 -57 -44 -78 -44c-16 0 -20 4 -22 14c1 16 24 76 64 181l143 375l-3 2c-32 -39 -69 -88 -111 -129
c-45 -44 -71 -53 -97 -53c-47 0 -62 37 -62 85c0 61 42 169 115 251c69 76 171 139 253 139c24 0 49 -9 52 -27c7 1 13 1 13 1c6 0 9 -2 9 -9zM404 410c-7 9 -17 18 -24 18c-46 0 -99 -33 -138 -70c-59 -57 -117 -170 -124 -265c-1 -20 0 -49 19 -49c35 0 135 111 187 206
c10 18 16 37 21 52c26 74 32 90 59 108z" />
    <glyph glyph-name="r" unicode="r" horiz-adv-x="417" 
d="M454 114c-23 -18 -70 -50 -124 -80c-82 -46 -127 -56 -147 -56c-21 0 -21 16 -21 27c0 19 7 59 41 153c18 48 60 149 70 172l-3 4c-20 -7 -49 -20 -91 -20c-20 0 -55 8 -72 43l-8 -6c-8 -6 -13 -10 -19 -10c-4 0 -7 4 -7 9c0 6 7 13 16 21l12 10c-5 34 1 136 69 136
c14 0 32 -7 32 -28c0 -29 -16 -70 -32 -90c2 -34 35 -38 48 -38c18 0 41 1 74 16c19 9 37 18 51 18c7 0 12 -5 12 -11c0 -18 -18 -63 -26 -83c-26 -66 -81 -221 -81 -236c0 -22 7 -22 26 -22c32 0 109 43 171 83z" />
    <glyph glyph-name="s" unicode="s" horiz-adv-x="378" 
d="M404 423c-12 -32 -30 -44 -62 -54c-7 29 -52 39 -80 39c-41 0 -99 -21 -99 -73c0 -15 7 -29 18 -38c36 -29 94 -60 122 -86c20 -18 25 -36 25 -58c0 -51 -66 -131 -155 -161c-27 -9 -46 -12 -90 -12c-47 0 -100 25 -105 60c2 15 15 29 32 40c8 5 29 18 40 18
c9 -39 29 -74 88 -74c66 0 119 38 119 89c0 26 -10 43 -30 58c-39 28 -76 48 -105 73c-18 16 -29 30 -29 60c0 33 29 97 145 131c26 8 59 11 85 11c51 0 81 -23 81 -23z" />
    <glyph glyph-name="t" unicode="t" horiz-adv-x="340" 
d="M427 153c-164 -144 -287 -183 -347 -183c-46 0 -50 29 -50 48c0 21 8 62 28 124c33 101 47 129 83 241c0 0 -41 -3 -54 -3c-7 0 -18 1 -18 11c0 23 29 36 46 36h41l37 99c12 32 31 61 61 71c8 3 18 5 30 5c7 0 9 -3 9 -9c-13 -26 -18 -34 -30 -66l-38 -100h68
c37 0 88 4 96 4c9 0 13 -2 13 -7c0 -6 -6 -12 -21 -19c-12 -6 -33 -14 -62 -18c-39 -5 -106 -5 -106 -5c-15 -44 -103 -281 -103 -316c0 -9 -5 -42 30 -42c85 0 232 100 286 157z" />
    <glyph glyph-name="u" unicode="u" horiz-adv-x="510" 
d="M549 114c-23 -18 -68 -46 -124 -80c-72 -43 -119 -58 -141 -58c-17 0 -19 11 -19 22c0 28 24 103 43 166c14 48 24 80 24 80s-118 -124 -242 -223c-27 -21 -46 -27 -54 -27c-12 0 -20 9 -20 28c0 18 4 38 32 109l54 137c20 51 32 89 43 112c21 46 67 63 86 63
c5 0 7 -3 7 -11c-1 -10 -3 -29 -17 -64l-61 -157c-9 -23 -35 -87 -35 -94c0 -5 -1 -12 8 -12c15 0 44 22 79 54c62 57 92 82 140 150c15 29 28 83 55 111c24 24 47 30 62 30c7 0 16 -4 16 -18c0 -18 -12 -51 -50 -104c-12 -26 -25 -70 -37 -109c-9 -30 -46 -149 -46 -160
c0 -10 2 -17 11 -17c50 0 115 44 177 84z" />
    <glyph glyph-name="v" unicode="v" horiz-adv-x="414" 
d="M472 439c-1 -18 -37 -101 -116 -205c-51 -67 -63 -90 -166 -182c-28 -26 -65 -53 -83 -61c-17 -8 -35 -11 -48 -11c-7 0 -11 4 -11 12c0 11 10 41 27 101c25 86 41 139 54 189c10 40 15 71 17 93c1 12 0 18 -6 18c-15 0 -22 -10 -29 -10c-5 0 -9 3 -8 10c0 6 7 11 35 31
c30 21 56 32 78 32c13 0 16 -5 16 -28c0 -13 -3 -27 -7 -43c-15 -66 -31 -125 -51 -193c-14 -50 -37 -119 -45 -146c62 28 164 142 218 256c17 35 32 99 33 122c8 7 -1 5 33 23c17 9 32 13 47 14c8 0 13 -7 12 -22z" />
    <glyph glyph-name="w" unicode="w" horiz-adv-x="673" 
d="M712 439c-3 -34 -54 -124 -116 -205c-54 -71 -128 -157 -213 -216c-38 -26 -65 -38 -84 -38c-12 0 -12 8 -12 14c0 12 13 42 31 99c16 52 41 147 56 208l-4 1c-42 -66 -124 -198 -206 -275c-19 -18 -35 -31 -50 -38c-16 -8 -31 -9 -45 -9c-7 0 -11 4 -11 12
c1 14 8 40 19 80c17 61 37 143 54 209c10 40 17 81 17 91c0 18 -2 21 -8 21c-7 0 -23 -10 -29 -10s-9 2 -9 9c0 4 3 7 9 12c19 15 81 52 105 52c13 0 18 -9 16 -28c-1 -13 -3 -27 -7 -43l-82 -335c77 65 160 195 204 267c20 33 47 90 54 99c6 8 14 12 23 16c10 4 16 7 29 7
c6 0 15 0 15 -19c0 -11 -5 -34 -8 -47c-6 -23 -27 -108 -50 -189c-16 -55 -37 -140 -37 -140c30 20 60 46 90 77c74 78 127 172 146 254c6 25 11 42 11 49c4 8 46 37 80 37c8 0 13 -5 12 -22z" />
    <glyph glyph-name="x" unicode="x" horiz-adv-x="448" 
d="M489 118c-16 -21 -134 -146 -214 -146c-49 0 -84 55 -113 170c-23 -30 -51 -58 -83 -98s-63 -87 -78 -88c-15 0 -8 7 -8 20c11 22 92 115 160 191c-29 106 -35 122 -40 143c-15 58 -27 45 -27 69c0 10 14 29 31 45c11 10 26 16 32 16c11 0 26 1 34 -38
c13 -61 25 -117 36 -168c61 72 90 103 124 138c24 25 56 58 70 58c8 0 19 -2 19 -17c0 -28 -25 -31 -71 -73c-34 -31 -81 -73 -134 -138c29 -111 49 -167 108 -167c33 0 98 49 145 95z" />
    <glyph glyph-name="y" unicode="y" horiz-adv-x="465" 
d="M481 441c0 -11 -5 -26 -16 -51c-14 -32 -37 -67 -53 -94c-16 -44 -41 -124 -112 -299c-47 -115 -96 -222 -168 -291c-79 -75 -153 -119 -218 -119c-97 0 -113 41 -113 54c5 13 13 37 23 55c13 -22 52 -62 101 -62c41 0 88 -8 163 70c65 68 168 357 226 500l-3 1
c-101 -115 -246 -227 -291 -227c-13 0 -16 12 -16 25c0 20 18 72 32 107c38 97 88 235 103 270c17 40 67 63 86 63c5 0 7 -3 7 -11c-1 -10 -5 -31 -17 -64c0 0 -107 -252 -107 -287c0 -6 1 -9 9 -10c14 0 60 31 83 53c72 69 105 112 141 171l28 74c12 31 21 49 39 65
c18 15 37 23 60 23c8 0 13 -5 13 -16z" />
    <glyph glyph-name="z" unicode="z" horiz-adv-x="379" 
d="M407 441c0 -8 -4 -12 -9 -22c-7 -14 -51 -74 -119 -145c-44 -47 -172 -162 -200 -214c29 7 102 15 146 15c56 0 90 -2 104 -4c20 -4 22 -12 22 -24c0 -13 -22 -47 -41 -60c-8 9 -32 20 -92 20c-34 0 -84 -2 -168 -15c-12 -2 -21 -3 -33 -3c-14 0 -21 5 -21 15
c0 15 36 67 103 137c24 25 53 52 85 83c111 107 133 132 152 168h-38c-33 0 -102 -5 -175 -19c-25 -5 -24 -5 -38 -5c-6 0 -10 3 -10 9c0 8 16 21 31 35c18 15 32 25 43 29c27 11 71 16 134 15l100 -2c15 0 24 -5 24 -13z" />
    <glyph glyph-name="braceleft" unicode="{" horiz-adv-x="334" 
d="M365 743c0 -6 -9 -8 -14 -9c-23 -6 -47 -27 -57 -48c-11 -17 -25 -94 -35 -153c-12 -76 -29 -155 -50 -184c-17 -31 -41 -48 -90 -57l-1 -4c103 -25 84 -135 81 -156l-26 -167c-10 -66 -1 -124 44 -124c4 0 11 3 11 -7c0 -9 -7 -7 -12 -7c-60 0 -109 37 -109 104
c0 45 37 184 38 268c1 34 -21 73 -76 73c-8 0 -9 4 -9 7c0 11 5 19 13 20c28 3 57 6 82 40c24 32 39 180 49 229c12 57 16 99 65 139c22 18 77 41 86 41c3 0 10 2 10 -5z" />
    <glyph glyph-name="bar" unicode="|" horiz-adv-x="145" 
d="M289 802l-246 -1019h-43l245 1019h44z" />
    <glyph glyph-name="braceright" unicode="}" horiz-adv-x="334" 
d="M0 -169c0 6 9 8 14 9c23 6 47 27 57 48c11 17 25 94 35 153c12 76 29 155 50 184c17 31 41 48 90 57l1 4c-103 25 -84 135 -81 156l26 167c10 66 1 124 -44 124c-4 0 -11 -3 -11 7c0 9 7 7 12 7c60 0 109 -37 109 -104c0 -45 -37 -184 -38 -268c-1 -34 21 -73 76 -73
c8 0 9 -4 9 -7c0 -11 -5 -19 -13 -20c-28 -3 -57 -6 -82 -40c-24 -32 -39 -180 -49 -229c-12 -57 -16 -99 -65 -139c-22 -18 -77 -41 -86 -41c-3 0 -10 -2 -10 5z" />
    <glyph glyph-name="asciitilde" unicode="~" horiz-adv-x="541" 
d="M527 314c-51 -69 -100 -103 -148 -103c-60 0 -141 74 -196 74c-37 0 -80 -19 -121 -68l-10 13c38 44 82 103 165 103c50 0 165 -71 192 -71c29 0 60 9 105 63z" />
    <glyph glyph-name="afii10051" unicode="&#x402;" horiz-adv-x="599" 
d="M624 655c0 -32 -73 -60 -108 -77l-3 7c32 17 35 33 35 50c0 16 -27 22 -78 22c-60 0 -57 -5 -107 -13c-16 -68 -45 -149 -70 -242c26 5 68 11 93 11c73 0 163 -17 163 -147c0 -151 -163 -386 -322 -386c-55 0 -85 16 -85 37c0 8 1 23 17 23c23 0 25 -44 62 -44
c142 0 248 205 248 330c0 117 -52 140 -120 140c-19 0 -49 -4 -71 -9c-9 -23 -25 -84 -31 -109c-27 -118 -41 -192 -55 -221s-39 -35 -51 -35c-21 0 -21 9 -21 31c0 15 24 104 44 172c17 58 43 136 46 144c-8 -3 -19 -6 -25 -6c-12 0 -11 2 -11 10c0 16 32 34 51 43
c37 121 58 206 67 242c-209 -47 -226 -100 -247 -100c-14 0 -20 -1 -20 14c0 29 333 159 512 159c55 0 87 -9 87 -46z" />
    <glyph glyph-name="afii10052" unicode="&#x403;" horiz-adv-x="493" 
d="M543 883c0 -11 -69 -87 -126 -137c-3 -2 -14 -10 -21 -10c-6 0 -6 3 -6 8c0 7 41 73 61 105c18 30 40 48 80 48c12 0 12 -4 12 -14zM516 101c-123 -102 -206 -138 -242 -138c-43 0 -54 15 -54 54c0 24 19 108 45 181c56 157 125 374 125 411c0 17 -12 30 -36 30
c-43 0 -111 -44 -122 -53c-43 -33 -95 -83 -132 -152c-23 -43 -12 -98 -50 -98c-12 0 -22 4 -22 16c0 95 164 233 219 268c67 43 121 72 182 72c31 0 41 -25 41 -60c0 -33 -76 -248 -107 -362c-11 -41 -52 -184 -53 -202c0 -11 -13 -51 26 -51c43 0 118 54 170 100z" />
    <glyph glyph-name="afii10100" unicode="&#x453;" horiz-adv-x="329" 
d="M374 665c0 -11 -69 -87 -126 -137c-3 -2 -14 -10 -21 -10c-6 0 -6 3 -6 8c0 7 41 73 61 105c18 30 40 48 80 48c12 0 12 -4 12 -14zM346 123c-22 -21 -80 -64 -113 -86c-72 -47 -106 -58 -126 -58c-30 0 -28 19 -28 39c0 14 24 85 46 147c27 77 49 136 49 164
c0 7 -1 20 -15 20c-17 0 -31 -5 -82 -49c-10 -1 -12 10 -12 10c112 103 149 115 171 115c11 0 27 1 27 -37c0 -29 -22 -90 -50 -171c-11 -30 -46 -128 -46 -150c0 -17 8 -24 18 -24c42 0 112 62 152 92z" />
    <glyph glyph-name="quotedblbase" unicode="&#x201e;" horiz-adv-x="233" 
d="M142 18c-10 -139 -145 -240 -172 -240c-10 0 -6 2 -6 8c1 12 46 31 72 69c18 26 26 59 28 88c3 39 -14 52 -11 90c1 17 15 29 26 38c21 17 29 21 39 21c18 0 29 -13 24 -74zM272 18c-10 -139 -145 -240 -172 -240c-10 0 -6 2 -6 8c1 12 46 31 72 69c18 26 26 59 28 88
c3 39 -14 52 -11 90c1 17 15 29 26 38c21 17 29 21 39 21c18 0 29 -13 24 -74z" />
    <glyph glyph-name="ellipsis" unicode="&#x2026;" horiz-adv-x="850" 
d="M773 46c-1 -17 -7 -32 -19 -45c-11 -12 -26 -18 -47 -18c-14 0 -23 3 -29 9c-3 5 -4 16 -4 33c1 22 6 39 17 51c11 11 28 16 53 17c13 0 20 -3 25 -11c3 -7 4 -19 4 -36zM482 46c-1 -17 -7 -32 -19 -45c-11 -12 -26 -18 -47 -18c-14 0 -23 3 -29 9c-3 5 -4 16 -4 33
c1 22 6 39 17 51c11 11 28 16 53 17c13 0 20 -3 25 -11c3 -7 4 -19 4 -36zM172 46c-1 -17 -7 -32 -19 -45c-11 -12 -26 -18 -47 -18c-14 0 -23 3 -29 9c-3 5 -4 16 -4 33c1 22 6 39 17 51c11 11 28 16 53 17c13 0 20 -3 25 -11c3 -7 4 -19 4 -36z" />
    <glyph glyph-name="dagger" unicode="&#x2020;" horiz-adv-x="347" 
d="M416 546c0 -9 -8 -16 -21 -23c-28 -15 -78 -21 -110 -23c-4 0 -12 -1 -12 -1l-107 -559c-4 -23 -59 -43 -70 -44c-7 0 -9 0 -9 11c0 37 66 362 113 589c-53 0 -84 0 -108 2c-8 1 -18 2 -18 11c0 14 8 21 17 29c11 9 23 7 46 7h74c20 94 35 164 38 173c8 4 51 8 59 8
s8 -4 7 -9l-33 -172h23c40 0 79 4 91 4s20 0 20 -3z" />
    <glyph glyph-name="afii10058" unicode="&#x409;" horiz-adv-x="800" 
d="M464 -22c-47 0 -94 18 -94 110c0 76 78 308 78 308l-5 3c-23 -35 -112 -164 -167 -229c-116 -138 -169 -170 -219 -170c-26 0 -47 17 -47 50c0 54 45 88 70 96c-1 -23 6 -60 34 -60c34 0 81 28 168 132c86 103 159 222 180 260c19 58 50 164 76 202c33 38 62 48 79 48
c10 0 12 -4 12 -19c0 -27 -39 -115 -65 -177c-34 -79 -118 -324 -118 -428c0 -47 21 -73 70 -73c122 0 200 135 200 219c0 55 -13 91 -68 91c-35 0 -72 -20 -102 -46l-6 14c54 56 118 85 161 85c53 0 86 -27 86 -95c0 -122 -182 -321 -323 -321z" />
    <glyph glyph-name="afii10059" unicode="&#x40a;" horiz-adv-x="765" 
d="M696 250c0 55 -13 91 -68 91c-35 0 -72 -20 -102 -46l-6 14c54 56 118 85 161 85c53 0 86 -27 86 -95c0 -122 -186 -321 -323 -321c-53 0 -104 18 -104 110c0 70 52 248 70 304c0 0 -132 -86 -205 -86c-29 0 -44 5 -44 5c-12 -48 -68 -253 -86 -282
c-17 -28 -40 -37 -52 -37c-25 0 -28 11 -28 33c0 15 39 133 56 177l51 131c-7 8 -12 19 -12 41c0 18 23 50 46 49c0 0 63 195 80 219c32 45 51 40 63 40c6 0 8 -4 8 -14c-1 -13 -15 -56 -33 -102l-64 -168s6 -30 68 -30c76 0 155 56 164 72c10 26 18 65 28 95
c32 98 56 121 72 130s33 18 41 18c10 0 9 -5 9 -16c0 -15 -28 -100 -76 -213c-37 -115 -80 -265 -80 -350c0 -42 21 -73 70 -73c122 0 210 135 210 219z" />
    <glyph glyph-name="afii10061" unicode="&#x40c;" horiz-adv-x="610" 
d="M543 883c0 -11 -69 -87 -126 -137c-3 -2 -14 -10 -21 -10c-6 0 -6 3 -6 8c0 7 41 73 61 105c18 30 40 48 80 48c12 0 12 -4 12 -14zM651 662c0 -42 -51 -91 -97 -113l-4 6c13 14 24 32 24 48c0 13 -8 18 -20 18c-24 0 -66 -19 -110 -62c-57 -56 -136 -142 -136 -142
s11 -21 22 -56c20 -65 47 -141 66 -192c33 -89 70 -151 114 -151c37 0 64 15 110 54l7 -21c-68 -67 -123 -92 -179 -92c-39 0 -91 34 -132 148c-32 89 -64 199 -76 229c-11 -19 -46 -55 -75 -129c-20 -50 -36 -107 -36 -107c-7 -20 -10 -38 -15 -47c-3 -7 -7 -14 -12 -20
c-11 -14 -35 -32 -53 -32c-15 0 -21 6 -21 18c0 13 32 113 69 232c35 112 74 243 105 335c10 29 28 77 38 92c17 23 58 35 77 35c4 0 4 -5 4 -13c0 -12 -21 -52 -31 -78c-26 -70 -88 -264 -103 -319l3 -1l40 54c2 13 5 36 27 58c9 9 23 13 30 13c66 74 108 118 160 170
c54 53 124 87 168 87c11 0 36 -1 36 -22z" />
    <glyph glyph-name="afii10060" unicode="&#x40b;" horiz-adv-x="616" 
d="M673 136c-35 -33 -72 -70 -125 -104c-59 -38 -86 -44 -108 -44c-49 0 -54 36 -54 64c0 37 46 190 46 245c0 39 5 79 -80 79c-19 0 -56 -9 -73 -17c-5 -16 -15 -51 -21 -73c-26 -99 -51 -218 -69 -248c-15 -26 -34 -46 -56 -46c-16 0 -18 11 -18 23c0 23 32 100 56 187
c0 0 36 133 39 141c-8 -3 -19 -10 -25 -10c-12 0 -11 2 -11 10c0 16 32 34 51 43c37 121 58 206 67 242c-209 -47 -226 -100 -247 -100c-14 0 -20 -1 -20 14c0 29 333 159 512 159c55 0 87 -9 87 -46c0 -32 -65 -62 -108 -77l-3 7c32 17 35 33 35 50c0 16 -27 22 -78 22
c-60 0 -57 -5 -107 -13c-16 -68 -37 -149 -70 -242c26 5 49 14 93 14c73 0 118 -25 118 -92c0 -74 -45 -218 -45 -243c0 -11 0 -43 31 -43c51 0 107 52 173 114z" />
    <glyph glyph-name="afii10145" unicode="&#x40f;" horiz-adv-x="743" 
d="M378 48c-16 -35 -22 -64 -28 -116c-5 -46 -14 -122 -38 -168c-24 -47 -49 -73 -91 -105l-5 8c50 62 49 133 63 221c6 42 31 101 91 162zM778 104c-123 -102 -206 -138 -242 -138c-43 0 -46 31 -46 58c0 66 60 255 118 436c-52 -64 -66 -82 -235 -275
c-69 -78 -112 -126 -174 -181c-6 -6 -15 -11 -30 -17c-12 -5 -22 -8 -32 -9c-10 0 -16 4 -21 14c-3 9 -4 20 -3 35c1 14 13 51 37 113c111 281 111 271 159 417c13 39 12 43 12 56c0 15 -2 28 -26 28c-43 0 -106 -44 -117 -53c-25 -21 -55 -43 -82 -82
c-28 -41 -12 -98 -50 -98c-12 0 -22 4 -22 16c0 65 109 163 164 198c67 43 121 72 182 72c31 0 31 -31 31 -58c0 -25 -25 -126 -105 -326c-36 -91 -69 -185 -70 -203c-1 -7 1 -10 6 -11c16 0 61 36 128 112c27 31 140 161 234 288c47 64 48 66 69 100c20 31 36 40 54 50
c13 7 37 6 43 6c5 0 8 -2 8 -9c-1 -7 -6 -13 -17 -37c-37 -78 -61 -143 -103 -256c-27 -73 -76 -237 -76 -300c0 -11 -1 -30 26 -30c43 0 118 54 170 100z" />
    <glyph glyph-name="afii10099" unicode="&#x452;" horiz-adv-x="428" 
d="M409 412c-2 -34 -31 -118 -53 -193c-44 -151 -92 -298 -156 -405c-36 -60 -87 -100 -132 -121c-14 -6 -25 -10 -34 -10c-5 0 -9 2 -9 6c0 11 19 11 30 18c39 25 66 51 104 135c22 48 42 106 63 175c69 226 93 295 93 321c0 7 3 12 -12 12c-17 0 -86 -64 -146 -137
c-37 -45 -62 -102 -81 -141c-38 -79 -53 -89 -75 -89c-13 0 -13 15 -13 19c0 15 5 36 19 66c11 23 21 57 27 73c0 0 65 189 115 331c4 12 8 23 13 35c-24 -1 -47 -1 -60 -2c-10 -1 -19 -1 -26 -1c-14 0 -17 3 -17 11c1 16 9 26 20 33c13 7 24 8 48 8h52c20 54 38 102 49 134
c5 14 12 23 28 34c28 20 57 20 57 20c5 0 9 -3 9 -10c0 0 -25 -60 -41 -104c-9 -25 -18 -50 -28 -75h35l91 4c12 1 18 -2 18 -7c-1 -6 -7 -12 -21 -19c-12 -6 -67 -26 -133 -26h-8c-36 -96 -74 -194 -110 -289h3c148 164 241 213 269 213c11 0 13 -9 12 -19z" />
    <glyph glyph-name="quoteleft" unicode="&#x2018;" horiz-adv-x="233" 
d="M207 648c-10 -139 -145 -240 -172 -240c-10 0 -6 2 -6 8c1 12 46 31 72 69c18 26 26 59 28 88c3 39 -14 52 -11 90c1 17 15 29 26 38c21 17 29 21 39 21c18 0 29 -13 24 -74z" />
    <glyph glyph-name="quoteright" unicode="&#x2019;" horiz-adv-x="233" 
d="M41 482c10 139 145 240 172 240c10 0 6 -2 6 -8c-1 -12 -46 -31 -72 -69c-18 -26 -26 -59 -28 -88c-3 -39 14 -52 11 -90c-1 -17 -15 -29 -26 -38c-21 -17 -29 -21 -39 -21c-18 0 -29 13 -24 74z" />
    <glyph glyph-name="quotedblleft" unicode="&#x201c;" horiz-adv-x="340" 
d="M201 622c5 61 -6 74 -24 74c-10 0 -18 -4 -39 -21c-11 -9 -25 -21 -26 -38c-3 -38 14 -51 11 -90c-2 -29 -10 -62 -28 -88c-26 -38 -71 -57 -72 -69c0 -6 -4 -8 6 -8c27 0 162 101 172 240zM331 622c5 61 -6 74 -24 74c-10 0 -18 -4 -39 -21c-11 -9 -25 -21 -26 -38
c-3 -38 14 -51 11 -90c-2 -29 -10 -62 -28 -88c-26 -38 -71 -57 -72 -69c0 -6 -4 -8 6 -8c27 0 162 101 172 240z" />
    <glyph glyph-name="quotedblright" unicode="&#x201d;" horiz-adv-x="340" 
d="M139 457c-5 -61 6 -74 24 -74c10 0 18 4 39 21c11 9 25 21 26 38c3 38 -14 51 -11 90c2 29 10 62 28 88c26 38 71 57 72 69c0 6 4 8 -6 8c-27 0 -162 -101 -172 -240zM9 457c-5 -61 6 -74 24 -74c10 0 18 4 39 21c11 9 25 21 26 38c3 38 -14 51 -11 90c2 29 10 62 28 88
c26 38 71 57 72 69c0 6 4 8 -6 8c-27 0 -162 -101 -172 -240z" />
    <glyph glyph-name="bullet" unicode="&#x2022;" horiz-adv-x="349" 
d="M303 235c0 -66 -54 -122 -121 -122c-68 0 -121 55 -121 122s55 121 122 121c66 0 120 -54 120 -121z" />
    <glyph glyph-name="endash" unicode="&#x2013;" horiz-adv-x="573" 
d="M560 344c0 -9 -6 -15 -21 -22c-12 -6 -30 -13 -62 -18c-15 -3 -99 -5 -187 -8c-53 -2 -170 -4 -187 -4c-12 0 -17 3 -17 11c0 12 8 26 22 32c14 5 32 8 54 8c23 1 42 0 59 1c35 1 162 2 228 4c35 1 79 4 91 4c7 0 20 0 20 -8z" />
    <glyph glyph-name="emdash" unicode="&#x2014;" horiz-adv-x="675" 
d="M629 261c0 -6 -6 -12 -20 -19c-12 -6 -28 -15 -62 -18c-21 -2 -62 -3 -156 -6c-95 -3 -154 -4 -186 -5c-34 -1 -51 0 -86 0c-12 0 -20 -1 -26 -1c-12 0 -17 3 -17 11c0 12 8 26 22 32s29 8 54 8c35 0 57 1 79 1c142 3 183 1 288 4c39 1 91 4 91 4c13 1 19 -1 19 -11z" />
    <glyph glyph-name="trademark" unicode="&#x2122;" horiz-adv-x="1115" 
d="M1087 477c-21 -15 -36 -27 -73 -49c-50 -30 -71 -37 -83 -37c-18 0 -19 13 -19 22c0 28 64 216 64 216l-3 1c-29 -38 -74 -97 -153 -187c-12 -14 -37 -43 -49 -43c-9 0 -10 6 -10 15c0 18 35 135 54 208l9 36l-3 1c-8 -16 -83 -132 -112 -169c-59 -77 -87 -96 -113 -96
c-22 0 -23 23 -23 33c0 27 18 50 35 59l4 -1c-1 -16 0 -39 16 -39c12 0 35 13 79 69c38 49 102 152 125 200c12 32 10 33 19 49c6 10 19 18 28 18c13 0 19 2 19 -9c0 -25 -13 -50 -24 -85c-23 -70 -50 -174 -55 -193c-1 -4 -7 -28 -2 -28c7 0 126 138 179 230
c14 41 18 60 33 79c11 15 23 18 34 18c8 0 9 -8 9 -19c0 -17 -25 -74 -39 -97c-13 -38 -72 -213 -72 -225c0 -10 -8 -23 15 -23c22 0 67 29 105 55zM572 466c-87 -59 -146 -85 -172 -85c-11 0 -13 11 -12 21c2 14 17 67 33 121c17 58 56 171 57 191c0 6 3 11 -3 11
c-5 0 -19 -18 -34 -34c-17 -18 -69 -84 -110 -145c-25 -38 -58 -118 -61 -122c-12 -18 -27 -25 -44 -25c-2 0 -3 0 -3 3c0 12 3 18 17 59l66 208c9 26 14 46 14 54c0 5 0 6 -3 7c-8 0 -28 -17 -57 -51c-50 -59 -129 -204 -149 -249c-7 -9 -29 -29 -45 -29c-9 0 -7 4 -8 12
c1 8 11 37 18 57c18 56 54 149 67 190c4 12 23 65 23 73c0 16 -1 16 -7 16c-16 0 -45 -22 -92 -67l-3 11c69 66 125 100 145 100c8 0 14 -3 14 -13c0 -17 -6 -29 -12 -50c-16 -56 -70 -200 -70 -200l3 -2c115 207 200 264 230 264c8 0 11 0 11 -14c0 -23 -60 -188 -70 -222
h2c101 133 167 229 212 229c10 0 11 -7 11 -14c0 -18 -42 -139 -60 -206c-7 -24 -32 -108 -32 -118c0 -7 -8 -22 7 -22c26 0 70 23 111 50z" />
    <glyph glyph-name="afii10106" unicode="&#x459;" horiz-adv-x="598" 
d="M568 222c0 -29 -19 -83 -55 -126c-52 -61 -117 -119 -193 -119c-40 0 -55 32 -55 58c0 38 4 68 27 159l10 40l-4 2c-22 -24 -55 -69 -93 -114c-84 -100 -132 -119 -166 -119c-30 0 -39 28 -39 56c0 16 7 57 23 75c10 11 27 18 40 22c2 -17 -4 -74 28 -74
c19 0 40 0 106 74c64 72 92 108 117 145c13 44 29 86 48 120c20 23 64 31 78 31c9 0 11 -3 11 -14c0 -17 -49 -137 -61 -194c30 22 78 40 112 40c41 0 66 -15 66 -62zM489 168c0 66 -61 68 -106 47c-4 -8 -35 -123 -35 -151c0 -23 11 -35 30 -35c58 0 111 78 111 139z" />
    <glyph glyph-name="afii10107" unicode="&#x45a;" horiz-adv-x="579" 
d="M548 222c0 -29 -17 -84 -55 -126c-49 -55 -117 -119 -203 -119c-38 0 -50 30 -50 59c0 38 10 83 41 157c-54 -22 -153 -30 -153 -30c-2 -32 -27 -115 -53 -142c-22 -23 -38 -27 -54 -27c-22 0 -24 8 -24 25c0 12 18 61 29 95l17 53c-9 11 -9 9 -9 26c0 14 16 27 38 29
l9 22c43 106 47 124 59 150c18 40 57 49 76 49c5 0 7 -3 7 -11c-1 -10 -19 -48 -31 -82l-48 -140s78 -7 152 20c27 62 49 97 74 134c27 41 68 81 94 81c6 0 13 -3 13 -10c0 -11 -21 -36 -39 -67c-23 -41 -32 -63 -59 -126c22 22 72 42 103 42c41 0 66 -17 66 -62zM469 168
c0 66 -55 71 -100 50c-21 -54 -41 -97 -41 -154c0 -18 8 -35 30 -35c61 0 111 78 111 139z" />
    <glyph glyph-name="afii10109" unicode="&#x45c;" horiz-adv-x="409" 
d="M444 665c0 -11 -69 -87 -126 -137c-3 -2 -14 -10 -21 -10c-6 0 -6 3 -6 8c0 7 41 73 61 105c18 30 40 48 80 48c12 0 12 -4 12 -14zM541 79c-71 -60 -164 -119 -236 -119c-50 0 -96 19 -120 117c-19 78 -23 114 -30 138c-10 -14 -20 -26 -31 -51c-17 -40 -35 -85 -35 -85
c-12 -30 -18 -44 -27 -53c-10 -10 -39 -25 -55 -25s-21 4 -21 14c0 7 6 23 22 65c15 40 23 66 40 112c32 88 58 161 68 189c9 25 15 43 25 54c17 19 54 29 73 29c6 0 7 -5 7 -11c0 -9 -12 -38 -21 -59c-22 -55 -42 -104 -56 -147l5 -1c48 52 76 83 148 142
c53 43 122 69 165 69c10 0 35 -1 35 -25c0 -23 -26 -63 -102 -110l-6 9c25 19 33 49 33 62c0 8 -8 14 -20 14c-23 0 -64 -15 -108 -49c-57 -44 -89 -85 -89 -85s11 1 16 1c7 0 15 -3 18 -19c7 -37 16 -90 26 -133c15 -66 42 -108 93 -108c72 0 136 52 174 83z" />
    <glyph glyph-name="afii10108" unicode="&#x45b;" horiz-adv-x="491" 
d="M551 116c-142 -110 -249 -138 -276 -138c-38 0 -40 29 -40 48c0 21 8 61 28 124c31 96 52 162 52 188c0 7 3 12 -12 12c-17 0 -86 -64 -146 -137c-37 -45 -62 -102 -81 -141c-38 -79 -53 -89 -75 -89c-13 0 -13 15 -13 19c0 15 5 36 19 66c11 23 21 57 27 73
c0 0 65 189 115 331c4 12 8 23 13 35c-24 -1 -47 -1 -60 -2c-10 -1 -19 -1 -26 -1c-14 0 -17 3 -17 11c1 16 9 26 20 33c13 7 24 8 48 8h52c20 54 38 102 49 134c5 14 12 23 28 34c28 20 57 20 57 20c5 0 9 -3 9 -10c0 0 -25 -60 -41 -104c-9 -25 -18 -50 -28 -75h35l91 4
c12 1 18 -2 18 -7c-1 -6 -7 -12 -21 -19c-12 -6 -67 -26 -133 -26h-8c-36 -96 -74 -194 -110 -289h3c148 164 241 213 269 213c11 0 13 -9 12 -19c-2 -34 -29 -120 -53 -193c-19 -57 -40 -122 -42 -147c-1 -10 -4 -42 23 -42c48 0 120 39 208 100z" />
    <glyph glyph-name="afii10193" unicode="&#x45f;" horiz-adv-x="525" 
d="M217 48c-16 -35 -22 -64 -28 -116c-5 -46 -14 -102 -38 -148c-24 -47 -49 -73 -91 -105l-5 8c50 62 49 113 63 201c6 42 31 101 91 162zM549 114c-23 -18 -68 -46 -124 -80c-72 -43 -119 -58 -141 -58c-17 0 -19 11 -19 22c0 28 24 103 43 166c14 48 24 80 24 80
s-118 -124 -242 -223c-27 -21 -46 -27 -54 -27c-12 0 -20 9 -20 28c0 18 4 38 32 109l54 137c20 51 32 89 43 112c21 46 67 63 86 63c5 0 7 -3 7 -11c-1 -10 -3 -29 -17 -64l-61 -157c-9 -23 -35 -87 -35 -94c0 -5 -1 -12 8 -12c15 0 44 22 79 54c62 57 92 82 140 150
c15 29 28 83 55 111c24 24 47 30 62 30c7 0 16 -4 16 -18c0 -18 -12 -51 -50 -104c-12 -26 -25 -70 -37 -109c-9 -30 -46 -149 -46 -160c0 -10 2 -17 11 -17c50 0 115 44 177 84z" />
    <glyph glyph-name="nbspace" horiz-adv-x="475" 
 />
    <glyph glyph-name="afii10062" unicode="&#x40e;" horiz-adv-x="624" 
d="M463 753c0 5 4 16 7 22c8 18 21 35 44 35c15 0 18 -19 97 -19c31 0 77 24 107 60c9 10 14 21 17 33s11 18 25 18c8 0 12 -5 11 -16c0 -10 -15 -38 -44 -64s-56 -47 -83 -60c-46 -23 -92 -34 -123 -34c-32 -1 -59 11 -58 25zM693 683c0 -44 -45 -104 -70 -145
c-37 -108 -69 -208 -110 -294c-78 -166 -204 -267 -347 -267c-55 0 -87 11 -86 31c0 3 3 20 19 20c23 0 22 -31 59 -31c112 0 172 46 251 179c39 66 69 152 119 275l-3 1c-29 -36 -128 -116 -204 -170c-19 -13 -64 -34 -95 -34c-17 0 -21 12 -21 39c0 23 41 123 66 181
c30 67 51 139 51 167c0 15 -2 28 -26 28c-43 0 -106 -44 -117 -53c-25 -21 -55 -43 -82 -82c-28 -41 -12 -98 -50 -98c-12 0 -22 4 -22 16c0 65 109 163 164 198c67 43 121 72 182 72c31 0 31 -31 31 -58c0 -33 -29 -113 -50 -171c-18 -49 -52 -141 -52 -153
c0 -7 4 -11 13 -11c10 0 16 4 29 10c58 25 169 134 211 204c12 37 24 67 36 92c12 24 22 39 31 47c18 15 37 22 60 23c9 0 13 -5 13 -16z" />
    <glyph glyph-name="afii10110" unicode="&#x45e;" horiz-adv-x="499" 
d="M265 533c0 5 4 16 6 22c8 18 22 47 45 47c15 0 9 -41 88 -41c49 0 109 45 124 93c4 12 11 18 25 18c8 0 12 -5 11 -16c0 -10 -15 -41 -43 -67c-77 -69 -146 -81 -198 -81c-32 0 -59 11 -58 25zM481 441c0 -11 -5 -26 -16 -51c-14 -32 -37 -67 -53 -94
c-16 -44 -41 -124 -112 -299c-47 -115 -96 -222 -168 -291c-79 -75 -153 -119 -218 -119c-97 0 -113 41 -113 54c5 13 13 37 23 55c13 -22 52 -62 101 -62c41 0 88 -8 163 70c65 68 168 357 226 500l-3 1c-101 -115 -246 -227 -291 -227c-13 0 -16 12 -16 25
c0 20 18 72 32 107c38 97 88 235 103 270c17 40 67 63 86 63c5 0 7 -3 7 -11c-1 -10 -5 -31 -17 -64c0 0 -107 -252 -107 -287c0 -6 1 -9 9 -10c14 0 60 31 83 53c72 69 105 112 141 171l28 74c12 31 21 49 39 65c18 15 37 23 60 23c8 0 13 -5 13 -16z" />
    <glyph glyph-name="afii10057" unicode="&#x408;" horiz-adv-x="362" 
d="M362 696c0 -7 -26 -47 -96 -236c-20 -54 -24 -68 -51 -144c-45 -126 -77 -213 -133 -286c-28 -37 -98 -96 -139 -96c-8 0 -6 5 -7 9c0 3 33 20 46 34c36 38 45 58 66 110c18 45 51 133 103 277l85 234c9 24 14 39 17 46c20 46 28 48 51 56c7 2 36 5 52 5c4 0 6 -2 6 -9z
" />
    <glyph glyph-name="currency" unicode="&#xa4;" horiz-adv-x="622" 
d="M575 89l-34 -34l-84 86c-49 -40 -105 -55 -150 -55s-101 15 -150 55l-84 -86l-33 34l85 84c-40 49 -55 105 -55 150s15 101 55 150l-85 84l33 34l84 -86c49 40 105 55 150 55s101 -15 150 -55l84 86l34 -34l-86 -84c40 -49 55 -105 55 -150s-15 -101 -55 -150zM496 323
c0 107 -85 194 -189 194s-189 -87 -189 -194s85 -194 189 -194s189 87 189 194z" />
    <glyph glyph-name="afii10050" unicode="&#x490;" horiz-adv-x="363" 
d="M471 748c7 0 -5 -42 -15 -79c-8 -31 -24 -41 -34 -41c-8 -2 -14 -2 -18 -1c-9 -2 -18 -5 -30 -7c-41 -8 -100 -8 -100 -8l-23 -78l-82 -285c-11 -39 -23 -83 -34 -133c-4 -21 -8 -52 -12 -68c-3 -11 -8 -24 -13 -32c-13 -14 -47 -40 -63 -40c-11 0 -22 4 -22 12
c0 12 3 23 11 51c43 158 48 186 81 303c25 86 65 221 65 221c3 11 9 36 12 48c-8 0 -16 0 -24 1c-9 0 -13 3 -14 10c0 6 6 11 19 17c12 5 27 9 44 13c17 3 36 4 51 4c45 0 130 3 130 3c4 19 14 49 14 49c8 17 31 40 57 40z" />
    <glyph glyph-name="section" unicode="&#xa7;" horiz-adv-x="423" 
d="M433 636c-8 -19 -5 -17 -18 -29c-14 -13 -23 -19 -38 -27c12 40 -28 104 -98 104c-46 0 -94 -10 -94 -96c0 -76 32 -102 102 -172c61 -61 105 -92 105 -166c0 -32 -20 -86 -65 -123l-26 -21c-18 -14 -34 -23 -51 -28c19 -26 29 -38 29 -77c0 -65 -72 -182 -196 -182
c-63 0 -115 30 -123 89c8 19 6 16 18 28c21 21 38 27 38 27c-11 -40 31 -96 101 -96c59 0 109 26 109 98c0 76 -57 101 -99 142c-49 47 -99 87 -99 164c0 72 36 173 118 208c-6 16 -12 28 -12 56c0 90 67 190 176 190c63 0 116 -31 123 -89zM333 229c-4 51 -56 101 -99 142
c-28 27 -54 48 -72 76c-49 -11 -88 -56 -83 -123c6 -76 31 -101 102 -172c9 -9 17 -17 25 -26c16 -1 31 -2 37 -2c20 0 46 9 65 27c16 14 28 32 25 78z" />
    <glyph glyph-name="afii10023" unicode="&#x401;" horiz-adv-x="542" 
d="M624 831c-1 -16 -7 -30 -18 -43c-10 -11 -24 -16 -45 -17c-13 0 -22 2 -28 7c-3 8 -4 19 -3 33c0 12 1 21 4 29c2 6 5 12 12 19c10 10 26 15 49 16c12 0 20 -3 24 -11c4 -7 5 -18 5 -33zM481 831c-1 -18 -7 -32 -18 -43c-9 -11 -23 -16 -45 -17c-12 0 -21 2 -27 7
c-3 7 -5 18 -4 33c1 22 6 38 17 48c10 10 26 15 49 16c12 0 20 -3 24 -10c4 -9 5 -20 4 -34zM614 670c0 -43 -38 -68 -68 -77l-6 3c14 16 14 32 14 43c0 26 -29 47 -86 47c-119 0 -185 -82 -185 -154c0 -110 137 -113 137 -136c0 -16 -18 -31 -40 -35
c-113 0 -242 -69 -242 -205c0 -81 42 -144 145 -144c139 0 264 93 301 122l11 -14c-43 -36 -203 -145 -364 -145c-120 0 -183 54 -183 142c0 157 220 261 261 265c-29 13 -96 47 -96 116c0 123 158 224 317 224c41 0 84 -14 84 -52z" />
    <glyph glyph-name="copyright" unicode="&#xa9;" horiz-adv-x="843" 
d="M784 489c0 -296 -213 -502 -472 -502c-208 0 -266 165 -266 262c0 357 279 497 466 497c156 0 272 -62 272 -257zM734 471c0 197 -136 240 -278 240c-18 0 -358 -26 -358 -446c0 -165 110 -260 214 -260c190 0 422 143 422 466zM567 552c0 -17 -8 -32 -24 -49
c-8 -8 -33 -27 -49 -27c-3 0 -4 2 -4 5c14 11 23 30 23 50c0 14 -13 18 -28 18c-82 0 -199 -130 -199 -274c0 -70 26 -113 89 -113c87 0 156 69 168 69c4 0 5 -4 4 -10c-2 -7 -62 -54 -144 -82c-24 -7 -51 -12 -73 -12c-54 0 -94 34 -94 99c0 43 7 82 31 136
c39 91 99 157 169 196c31 18 62 27 85 27c21 0 46 -6 46 -33z" />
    <glyph glyph-name="afii10053" unicode="&#x404;" horiz-adv-x="477" 
d="M537 650c0 -27 -13 -53 -36 -77c-11 -12 -48 -42 -72 -42c-4 0 -6 2 -6 7c21 18 35 47 35 80c0 26 -20 28 -42 28c-99 0 -232 -137 -276 -312c27 3 63 4 95 4c56 0 75 2 126 2c12 0 29 -1 29 -9c0 -7 -19 -23 -75 -30c-33 -4 -59 -5 -97 -5c-33 0 -62 3 -86 4
c-5 -28 -8 -58 -8 -87c0 -111 38 -179 131 -179c139 0 233 109 247 109c5 0 7 -5 5 -15c-2 -11 -108 -92 -212 -129c-34 -12 -49 -19 -107 -19c-85 0 -138 57 -138 146c0 62 10 140 45 225c58 143 147 247 249 309c46 28 91 42 125 42c31 0 68 -9 68 -52z" />
    <glyph glyph-name="guillemotleft" unicode="&#xab;" horiz-adv-x="340" 
d="M374 429c-1 -20 -84 -59 -117 -119c1 -51 25 -114 24 -130c-2 -17 -11 -27 -22 -36c-22 -19 -16 -17 -26 -17c-18 0 -26 34 -32 78c-5 32 -11 71 0 101c47 68 153 131 167 131c10 0 7 -2 6 -8zM274 455c-1 -11 -38 -38 -72 -68c-32 -28 -60 -52 -75 -79
c-5 -54 19 -127 18 -143c-2 -17 -6 -24 -17 -33c-22 -19 -16 -17 -26 -17c-18 0 -25 46 -31 90c-5 32 -11 71 0 101c47 68 183 157 197 157c5 0 6 -2 6 -8z" />
    <glyph glyph-name="logicalnot" unicode="&#xac;" horiz-adv-x="594" 
d="M537 281l-19 -117l-37 -13l12 83h-259c-33 0 -198 -1 -213 -3c11 34 36 45 46 47c34 1 407 1 470 3z" />
    <glyph glyph-name="registered" unicode="&#xae;" horiz-adv-x="814" 
d="M774 469c0 -296 -213 -482 -472 -482c-208 0 -266 165 -266 272c0 361 299 487 486 487c156 0 252 -108 252 -277zM724 451c0 193 -116 260 -258 260c-18 0 -378 -24 -378 -436c0 -171 110 -270 214 -270c190 0 422 123 422 446zM586 512c0 -91 -150 -144 -150 -180
c0 -27 23 -60 45 -94c17 -29 35 -51 52 -69c12 -14 21 -21 21 -23c0 -7 -9 -9 -21 -9c-35 0 -66 34 -91 72c-26 42 -53 88 -53 107c0 6 1 10 13 21c18 16 136 85 136 156c0 36 -30 55 -85 55c-49 0 -137 -21 -173 -66c-10 -13 -7 -36 -22 -36c-8 0 -12 -2 -12 12
c0 28 111 114 232 114c88 0 108 -30 108 -60zM433 526c-39 -112 -91 -265 -102 -295c-1 -4 -3 -11 -5 -22c-4 -18 -6 -27 -13 -37c-8 -13 -32 -31 -44 -31c-9 0 -13 3 -13 8c0 12 9 35 17 57c16 49 30 76 112 305c23 20 48 15 48 15z" />
    <glyph glyph-name="afii10056" unicode="&#x407;" horiz-adv-x="321" 
d="M440 798c-2 -28 -18 -54 -53 -54c-24 0 -32 8 -31 36c2 35 15 57 56 57c24 0 29 -13 28 -39zM330 798c-2 -28 -18 -54 -53 -54c-24 0 -32 8 -31 36c2 35 15 57 56 57c24 0 29 -13 28 -39zM358 696c0 -6 -14 -24 -54 -128c-36 -93 -64 -168 -110 -303
c-14 -42 -32 -89 -46 -141c-9 -34 -15 -70 -26 -93c-7 -14 -48 -57 -75 -57c-12 0 -21 1 -21 14c0 17 28 90 35 112c25 73 53 161 90 264c48 132 77 212 89 242c18 44 27 67 31 72c11 12 22 20 50 25c8 2 21 2 31 2c5 0 6 -5 6 -9z" />
    <glyph glyph-name="degree" unicode="&#xb0;" horiz-adv-x="374" 
d="M344 638c0 -90 -82 -195 -190 -195c-62 0 -78 53 -78 90c0 50 20 104 71 148c38 33 71 41 85 44c19 7 30 8 47 8c38 0 65 -35 65 -95zM289 612c0 51 -17 70 -39 72c-4 0 -15 1 -24 1c-83 0 -96 -98 -96 -119c0 -40 13 -84 56 -84c40 0 103 19 103 130z" />
    <glyph glyph-name="plusminus" unicode="&#xb1;" horiz-adv-x="481" 
d="M474 342c-1 -17 -21 -24 -54 -30c-14 -2 -66 -4 -126 -5c0 0 -14 -49 -28 -89c-6 -16 -21 -55 -68 -55c-16 0 -22 5 -22 14c0 10 14 37 29 76c5 12 11 32 18 53l-68 -1c-46 -1 -65 -2 -80 -2c-8 0 -13 4 -13 12c0 25 41 34 77 34c30 0 99 -1 99 -1c9 20 12 33 21 58
c15 44 22 67 46 74c12 4 28 7 42 7c8 0 8 -5 8 -13c0 -6 -9 -22 -23 -59c-9 -24 -12 -35 -22 -66h24c35 0 114 4 121 4c17 0 19 -6 19 -11zM344 123c0 -14 -50 -32 -83 -37c-34 -5 -104 -6 -162 -6c-8 0 -18 -1 -28 -1c-7 0 -16 0 -16 11c0 27 44 40 77 40h101
c44 0 78 4 91 4c21 0 20 -6 20 -11z" />
    <glyph glyph-name="afii10055" unicode="&#x406;" horiz-adv-x="271" 
d="M358 696c0 -6 -14 -24 -54 -128c-36 -93 -64 -168 -110 -303c-14 -42 -32 -89 -46 -141c-9 -34 -15 -70 -26 -93c-7 -14 -48 -57 -75 -57c-12 0 -21 1 -21 14c0 17 28 90 35 112c25 73 53 161 90 264c48 132 77 212 89 242c18 44 27 67 31 72c11 12 22 20 50 25
c8 2 21 2 31 2c5 0 6 -5 6 -9z" />
    <glyph glyph-name="afii10103" unicode="&#x456;" horiz-adv-x="303" 
d="M273 591c0 -34 -22 -63 -67 -63c-23 0 -33 14 -33 42c0 40 20 67 70 68c22 1 30 -10 30 -47zM389 164c-43 -32 -109 -81 -156 -110c-109 -67 -158 -76 -178 -76c-38 0 -40 29 -40 48c0 21 16 85 31 131c30 91 64 189 87 255c4 12 16 27 40 36c14 5 30 7 39 7
c6 0 8 -3 8 -11c0 -11 -26 -75 -44 -129c-32 -97 -80 -226 -80 -249c0 -21 -1 -36 21 -36c60 0 221 114 270 158z" />
    <glyph glyph-name="afii10098" unicode="&#x491;" horiz-adv-x="334" 
d="M395 546c7 0 -6 -45 -16 -84c-9 -33 -26 -44 -37 -44c-8 -2 -14 -2 -19 -1c-9 -2 -19 -5 -31 -7c-44 -8 -50 -5 -75 -9c-16 -50 -35 -130 -56 -212c-12 -46 -29 -105 -29 -117c0 -10 3 -18 3 -25c0 -12 -1 -22 -31 -47c-5 -4 -23 -17 -50 -22c-15 0 -22 4 -23 14
c0 6 2 17 7 33c15 45 26 75 40 123c11 37 16 58 25 95c15 61 36 131 36 158c-8 0 -35 -1 -45 0c-9 1 -13 4 -14 11c0 6 6 12 20 18c13 6 28 10 47 14c18 3 38 4 54 4c48 0 118 3 118 3c4 21 15 53 15 53c8 17 33 42 61 42z" />
    <glyph glyph-name="mu" unicode="&#xb5;" horiz-adv-x="562" 
d="M557 159c0 -21 -82 -169 -167 -169c-26 0 -38 25 -38 56c0 27 4 62 6 62h-4c-46 -64 -84 -118 -139 -118c-53 0 -84 51 -75 173h-3c-27 -66 -72 -196 -72 -302c0 -35 9 -41 13 -50c-10 -27 -33 -59 -57 -59c-26 0 -30 28 -30 47c0 26 16 92 27 125c28 84 85 223 126 357
l33 107c4 12 11 40 24 54c18 19 37 27 64 28c6 0 8 -3 9 -10c0 0 -21 -64 -28 -91c-12 -44 -39 -190 -39 -234c0 -40 3 -88 40 -88c52 0 102 90 113 134l50 195c6 22 11 41 21 54c18 24 52 27 67 27c6 0 9 -2 9 -10c0 -12 -30 -86 -37 -114c-33 -127 -53 -240 -53 -255
c0 -23 5 -32 18 -32c42 0 87 73 98 105c2 5 5 17 15 17c7 0 9 -4 9 -9z" />
    <glyph glyph-name="mu" unicode="&#x3bc;" horiz-adv-x="562" 
d="M557 159c0 -21 -82 -169 -167 -169c-26 0 -38 25 -38 56c0 27 4 62 6 62h-4c-46 -64 -84 -118 -139 -118c-53 0 -84 51 -75 173h-3c-27 -66 -72 -196 -72 -302c0 -35 9 -41 13 -50c-10 -27 -33 -59 -57 -59c-26 0 -30 28 -30 47c0 26 16 92 27 125c28 84 85 223 126 357
l33 107c4 12 11 40 24 54c18 19 37 27 64 28c6 0 8 -3 9 -10c0 0 -21 -64 -28 -91c-12 -44 -39 -190 -39 -234c0 -40 3 -88 40 -88c52 0 102 90 113 134l50 195c6 22 11 41 21 54c18 24 52 27 67 27c6 0 9 -2 9 -10c0 -12 -30 -86 -37 -114c-33 -127 -53 -240 -53 -255
c0 -23 5 -32 18 -32c42 0 87 73 98 105c2 5 5 17 15 17c7 0 9 -4 9 -9z" />
    <glyph glyph-name="paragraph" unicode="&#xb6;" horiz-adv-x="373" 
d="M376 662l-121 -736h-48l121 736h48zM248 662l-121 -736h-47l83 519c-41 26 -59 68 -49 119c10 49 39 83 87 98h47z" />
    <glyph glyph-name="afii10071" unicode="&#x451;" horiz-adv-x="378" 
d="M489 581c-2 -21 -7 -30 -18 -43c-10 -11 -24 -16 -45 -17c-13 0 -22 -3 -28 7c-4 7 -5 19 -4 33c2 16 2 32 17 48c10 10 26 15 49 16c12 0 20 -3 24 -11c4 -7 6 -18 5 -33zM346 581c-1 -18 -4 -29 -18 -43c-13 -13 -23 -16 -45 -17c-12 0 -19 0 -27 7c-9 9 -5 18 -5 33
c2 22 7 38 18 48c10 10 26 15 49 16c12 0 20 -3 24 -10c4 -9 5 -20 4 -34zM429 104c-1 -10 -153 -119 -287 -119c-83 0 -126 39 -126 125c0 56 30 144 99 226c81 97 171 135 220 135c38 0 51 -9 51 -34c0 -32 -50 -85 -120 -151c-56 -53 -158 -146 -158 -146
c-5 -84 31 -110 92 -110c105 0 224 93 224 93c5 -8 6 -10 5 -19zM301 392c0 21 -15 24 -29 24c-25 0 -68 -20 -101 -62c-29 -37 -63 -111 -66 -181c0 0 70 58 120 109c44 45 76 81 76 110z" />
    <glyph glyph-name="afii61352" unicode="&#x2116;" horiz-adv-x="938" 
d="M950 428c-1 -14 -5 -32 -15 -54c-12 -28 -26 -51 -46 -69c-36 -32 -63 -53 -84 -65c-27 -14 -59 -21 -95 -21c-34 0 -58 6 -74 22c-15 15 -20 34 -19 58c2 28 9 55 23 82c20 40 51 72 96 97c18 10 35 16 49 20c14 3 28 4 42 5c10 2 17 3 23 4c16 2 28 3 37 4l10 -1
c20 -2 33 -11 42 -27c9 -15 13 -33 11 -55zM842 131c0 -6 -7 -12 -20 -19c-13 -6 -33 -12 -62 -18c-13 -2 -35 -3 -69 -4c-32 0 -63 -1 -94 -2c-12 -1 -20 0 -26 -1c-12 0 -18 3 -17 11c1 16 8 26 22 32c14 5 33 8 55 8h101l91 4c13 1 19 -3 19 -11zM621 696l-47 -128
c-9 -26 -23 -68 -42 -128c-18 -58 -38 -115 -55 -175l-40 -141l-21 -77c-2 -6 -3 -11 -6 -17c-1 -4 -4 -9 -9 -15c-4 -5 -8 -9 -12 -14c-2 -3 -8 -8 -20 -17c-11 -6 -18 -9 -23 -10c-12 0 -22 15 -31 45c-3 12 -7 35 -13 69c-9 53 -17 106 -25 161c-8 54 -15 108 -22 164
c-6 56 -11 111 -17 165c-5 -13 -19 -56 -42 -129c-20 -61 -41 -121 -59 -184l-40 -141l-17 -77c-2 -6 -3 -11 -6 -17c-1 -4 -3 -8 -8 -12c-7 -9 -12 -14 -13 -15c-4 -4 -11 -10 -24 -19c-3 -2 -3 -4 -2 -8l-1 -2c-12 0 -18 4 -18 14c1 8 4 23 11 46s14 45 20 66
c14 52 28 102 44 152c15 49 27 86 35 112l75 234c9 28 14 43 15 46c7 18 11 29 15 33c3 4 6 8 11 12s10 7 17 11c1 1 2 2 4 3s8 1 21 2c3 -2 5 -4 5 -7c4 4 8 6 12 6c5 0 9 -6 13 -18c2 -16 4 -34 7 -55c3 -20 9 -63 19 -131c13 -96 22 -159 26 -190c10 -77 20 -140 29 -190
l142 480c6 20 10 37 14 51s7 22 11 26c2 4 5 8 10 12s10 7 16 10s12 4 18 5c6 0 11 0 18 1c4 0 5 -3 5 -9zM882 433c2 28 -9 42 -33 43c-5 0 -11 -1 -20 -5l-14 3c-20 0 -38 -6 -55 -19c-16 -12 -30 -29 -44 -52c-8 -14 -16 -29 -22 -47c-6 -17 -9 -32 -10 -47
c-2 -17 2 -32 12 -45c9 -12 22 -19 40 -19c19 -1 36 4 50 12s26 19 40 35c15 18 27 40 38 67c10 26 16 50 18 74z" />
    <glyph glyph-name="afii10101" unicode="&#x454;" horiz-adv-x="245" 
d="M181 334c-2 -32 -21 -63 -62 -63c-28 0 -38 9 -36 42c2 42 17 68 65 68c29 0 35 -16 33 -47z" />
    <glyph glyph-name="guillemotright" unicode="&#xbb;" horiz-adv-x="340" 
d="M-21 139c1 20 84 59 117 119c-1 51 -25 114 -24 130c2 17 11 27 22 36c22 19 16 17 26 17c18 0 26 -34 32 -78c5 -32 11 -71 0 -101c-47 -68 -153 -131 -167 -131c-10 0 -7 2 -6 8zM79 113c1 11 38 38 72 68c32 28 60 52 75 79c5 54 -19 127 -18 143c2 17 6 24 17 33
c22 19 16 17 26 17c18 0 25 -46 31 -90c5 -32 11 -71 0 -101c-47 -68 -183 -157 -197 -157c-5 0 -6 2 -6 8z" />
    <glyph glyph-name="afii10105" unicode="&#x458;" horiz-adv-x="230" 
d="M273 591c0 -34 -22 -63 -67 -63c-23 0 -33 14 -33 42c0 40 20 67 70 68c22 1 30 -10 30 -47zM227 444c0 -14 -27 -80 -44 -129c-34 -100 -88 -239 -88 -239c-29 -79 -69 -185 -131 -268c-46 -62 -94 -101 -140 -122c-14 -6 -26 -9 -35 -9c-7 0 -11 2 -11 8
c0 10 22 12 33 19c83 58 126 148 189 307c41 102 117 312 140 401c3 12 19 29 40 36c14 5 29 7 39 7c6 0 8 -3 8 -11z" />
    <glyph glyph-name="afii10054" unicode="&#x405;" horiz-adv-x="497" 
d="M540 666c4 -11 3 -34 -11 -53c-8 -10 -26 -28 -45 -33c0 20 -7 47 -28 66c-19 18 -43 28 -72 28c-71 0 -146 -44 -152 -130c-7 -100 102 -154 169 -226c33 -35 50 -77 48 -112c-10 -135 -155 -230 -308 -230c-59 0 -152 28 -149 93c2 41 33 75 80 76
c-5 -70 17 -123 119 -123c122 0 178 94 182 148c2 34 -15 72 -53 105c-51 45 -103 97 -121 116c-32 35 -45 73 -42 115c7 106 121 208 254 208c70 0 114 -23 129 -48z" />
    <glyph glyph-name="afii10102" unicode="&#x455;" horiz-adv-x="378" 
d="M404 423c-12 -32 -30 -44 -62 -54c-7 29 -52 39 -80 39c-41 0 -99 -21 -99 -73c0 -15 7 -29 18 -38c36 -29 94 -60 122 -86c20 -18 25 -36 25 -58c0 -51 -66 -131 -155 -161c-27 -9 -46 -12 -90 -12c-47 0 -100 25 -105 60c2 15 15 29 32 40c8 5 29 18 40 18
c9 -39 29 -74 88 -74c66 0 119 38 119 89c0 26 -10 43 -30 58c-39 28 -76 48 -105 73c-18 16 -29 30 -29 60c0 33 29 97 145 131c26 8 59 11 85 11c51 0 81 -23 81 -23z" />
    <glyph glyph-name="afii10104" unicode="&#x457;" horiz-adv-x="317" 
d="M333 591c0 -34 -21 -63 -67 -63c-28 0 -33 16 -33 42c0 23 8 40 18 51s29 17 52 17c22 0 30 -10 30 -47zM213 591c0 -34 -21 -63 -67 -63c-28 0 -33 16 -33 42c0 23 8 40 18 51s29 17 52 17c22 0 30 -10 30 -47zM381 136c-163 -124 -294 -158 -326 -158
c-37 0 -41 27 -41 48c0 27 8 62 29 124c34 105 67 196 90 262c4 12 18 26 40 36c14 6 28 7 39 7c6 0 8 -4 8 -11c0 -8 -23 -70 -44 -129c-37 -103 -81 -218 -81 -255c0 -17 -1 -30 22 -30c56 0 170 59 258 120z" />
    <glyph glyph-name="afii10017" unicode="&#x410;" horiz-adv-x="590" 
d="M644 678c0 -14 -24 -79 -57 -181c-18 -54 -46 -141 -68 -214c16 -1 53 -1 76 -3c-12 -24 -42 -33 -86 -37c0 0 -26 -94 -40 -147c-14 -54 -34 -72 -60 -72c-31 0 -59 90 -94 128c-42 46 -83 55 -106 58c-29 -45 -146 -231 -168 -234c-19 2 -20 2 -20 22
c0 30 88 160 122 218c-16 1 -28 -4 -58 -4c-34 0 -38 10 -38 30c0 30 32 41 74 42c20 0 45 1 69 0c105 136 280 308 417 406c0 0 7 4 19 4s18 -5 18 -16zM547 615c-41 -34 -155 -152 -287 -336c54 3 127 -2 181 1c19 59 48 149 75 231c24 73 31 95 31 104zM464 555l-2 1
c-78 -69 -171 -168 -248 -274h7s104 123 243 273zM432 235c-54 0 -54 -3 -113 1c0 0 64 -39 90 -80c5 12 3 1 23 79z" />
    <glyph glyph-name="afii10018" unicode="&#x411;" horiz-adv-x="594" 
d="M715 652c0 -32 -73 -60 -108 -77l-3 7c32 17 35 33 35 50c0 16 -27 22 -78 22c-60 0 -110 -8 -160 -16c-41 -94 -69 -183 -82 -224c17 5 80 15 113 15c76 0 163 -2 163 -97c0 -96 -111 -203 -212 -266c-62 -39 -148 -61 -177 -56c-7 -8 -12 -14 -23 -16l-29 -2
c-12 -1 -17 8 -17 16c0 21 5 61 14 94c25 91 64 199 64 199c3 8 7 21 13 39c0 0 -15 -7 -25 -7c-12 0 -11 2 -11 10c0 23 53 46 53 46c24 63 53 157 85 233c-209 -47 -202 -82 -223 -82c-14 0 -20 -1 -20 14c0 29 377 144 541 144c55 0 87 -9 87 -46zM515 292
c0 88 -61 82 -120 82c-27 0 -82 -12 -94 -17c0 0 -36 -92 -52 -153c-15 -58 -29 -122 -29 -153c6 -10 25 -5 49 -5c84 0 246 134 246 246z" />
    <glyph glyph-name="afii10019" unicode="&#x412;" horiz-adv-x="581" 
d="M589 604c0 -85 -189 -170 -189 -200c0 -46 176 -124 176 -230c0 -118 -133 -184 -276 -184c-71 0 -129 28 -150 42c-18 -24 -38 -40 -65 -40c-6 0 -14 3 -14 10c0 15 15 54 20 68c-6 11 -13 18 -13 40c0 36 31 34 39 33c0 0 87 278 156 433c44 67 85 58 85 58
c-21 -51 -70 -188 -111 -308c-33 -96 -77 -242 -77 -242c22 -31 93 -68 145 -68c114 0 189 29 189 126c0 90 -75 132 -114 166c-32 28 -54 43 -54 68c0 37 45 56 66 70c63 42 112 80 112 136c0 62 -38 88 -102 88c-84 0 -175 -28 -258 -112c-31 -31 -16 -66 -44 -66
c-14 0 -28 -1 -28 22c0 67 198 187 370 187c83 0 137 -28 137 -97z" />
    <glyph glyph-name="afii10020" unicode="&#x413;" horiz-adv-x="493" 
d="M516 101c-123 -102 -206 -138 -242 -138c-43 0 -54 15 -54 54c0 24 19 108 45 181c56 157 125 374 125 411c0 17 -12 30 -36 30c-43 0 -111 -44 -122 -53c-43 -33 -95 -83 -132 -152c-23 -43 -12 -98 -50 -98c-12 0 -22 4 -22 16c0 95 164 233 219 268
c67 43 121 72 182 72c31 0 41 -25 41 -60c0 -33 -76 -248 -107 -362c-11 -41 -52 -184 -53 -202c0 -11 -13 -51 26 -51c43 0 118 54 170 100z" />
    <glyph glyph-name="afii10021" unicode="&#x414;" horiz-adv-x="748" 
d="M798 262c0 -86 -88 -188 -175 -230c-109 -53 -202 -53 -314 -53c-60 0 -70 -1 -81 -1c-14 0 -31 0 -31 10c0 7 30 47 59 112c115 258 209 451 236 500c-43 26 -123 62 -218 62c-50 0 -94 -14 -118 -38c-35 -36 -35 -76 -35 -85c0 -18 15 -36 15 -51
c0 -17 -21 -42 -35 -42c-16 0 -27 9 -27 37c0 55 16 113 72 161c43 37 122 61 161 61c105 0 166 -19 218 -47c19 29 74 122 98 122c6 0 16 2 16 -9c0 -13 -16 -34 -34 -62c-17 -26 -42 -61 -46 -69c124 -80 239 -203 239 -378zM724 236c0 141 -83 266 -201 342
c-63 -105 -204 -421 -238 -526c0 0 29 -3 102 -3c56 0 197 -12 264 31c55 36 73 111 73 156z" />
    <glyph glyph-name="afii10022" unicode="&#x415;" horiz-adv-x="546" 
d="M614 670c0 -43 -38 -68 -68 -77l-6 3c14 16 14 32 14 43c0 26 -29 47 -86 47c-119 0 -185 -82 -185 -154c0 -110 137 -113 137 -136c0 -16 -18 -31 -40 -35c-113 0 -242 -69 -242 -205c0 -81 42 -144 145 -144c139 0 264 93 301 122l11 -14c-43 -36 -203 -145 -364 -145
c-120 0 -183 54 -183 142c0 157 220 261 261 265c-29 13 -96 47 -96 116c0 123 158 224 317 224c41 0 84 -14 84 -52z" />
    <glyph glyph-name="afii10024" unicode="&#x416;" horiz-adv-x="973" 
d="M1046 127c0 -20 -143 -134 -286 -134c-51 0 -86 32 -86 93c0 89 48 218 64 253l-2 4c-42 -45 -155 -195 -206 -258c-33 -40 -56 -57 -71 -57c-5 0 -12 1 -12 10s14 54 37 114c40 103 95 256 126 352c-56 -39 -155 -131 -155 -131c-25 -77 -94 -220 -145 -295
c-31 -46 -83 -106 -127 -106c-22 0 -27 15 -27 32c0 48 103 216 154 270l64 68c18 38 32 137 32 186c0 67 -8 112 -54 112c-63 0 -156 -77 -208 -140c-42 -51 -104 -156 -104 -193c0 -14 11 -46 -16 -46c-10 0 -16 6 -16 16c0 7 3 31 8 44c26 73 80 150 128 205
c106 121 205 173 268 173c54 0 72 -47 72 -107c0 -75 -11 -139 -20 -178c0 0 47 34 101 84c53 49 100 93 127 93c4 0 11 -4 8 -12l-157 -433l3 -2l233 300c37 67 37 70 73 118c22 29 52 34 62 34c15 0 12 -11 12 -22c0 -13 -32 -59 -48 -86c-21 -37 -41 -79 -50 -100
c-21 -52 -74 -200 -74 -268c0 -64 25 -84 62 -84c124 0 207 96 207 96c8 5 12 8 18 8c4 0 5 -4 5 -13zM363 300c-40 -38 -145 -191 -145 -257c0 -9 3 -16 12 -16c32 0 117 206 133 273z" />
    <glyph glyph-name="afii10025" unicode="&#x417;" horiz-adv-x="524" 
d="M560 630c0 -72 -70 -145 -167 -211c24 -7 84 -34 84 -120c0 -169 -225 -309 -353 -309c-87 0 -122 35 -122 84c0 55 57 82 88 84l2 -3c-15 -18 -23 -43 -23 -63c0 -44 35 -68 99 -68c133 0 223 145 223 250c0 49 -14 79 -46 93c-8 4 -20 6 -29 7c-16 2 -22 4 -22 10
c0 9 4 11 11 15c17 8 33 13 72 37c47 29 107 87 107 160c0 56 -28 78 -73 78c-34 0 -72 -11 -105 -30c-74 -41 -86 -94 -106 -94c-13 0 -16 -3 -16 16c0 30 57 67 115 98c50 27 115 42 157 42c72 0 104 -24 104 -76z" />
    <glyph glyph-name="afii10026" unicode="&#x418;" horiz-adv-x="743" 
d="M778 104c-123 -102 -206 -138 -242 -138c-43 0 -46 31 -46 58c0 66 60 255 118 436c-52 -64 -66 -82 -235 -275c-69 -78 -112 -126 -174 -181c-6 -6 -15 -11 -30 -17c-12 -5 -22 -8 -32 -9c-10 0 -16 4 -21 14c-3 9 -4 20 -3 35c1 14 13 51 37 113
c111 281 111 271 159 417c13 39 12 43 12 56c0 15 -2 28 -26 28c-43 0 -106 -44 -117 -53c-25 -21 -55 -43 -82 -82c-28 -41 -12 -98 -50 -98c-12 0 -22 4 -22 16c0 65 109 163 164 198c67 43 121 72 182 72c31 0 31 -31 31 -58c0 -25 -25 -126 -105 -326
c-36 -91 -69 -185 -70 -203c-1 -7 1 -10 6 -11c16 0 61 36 128 112c27 31 140 161 234 288c47 64 48 66 69 100c20 31 36 40 54 50c13 7 37 6 43 6c5 0 8 -2 8 -9c-1 -7 -6 -13 -17 -37c-37 -78 -61 -143 -103 -256c-27 -73 -76 -237 -76 -300c0 -11 -1 -30 26 -30
c43 0 118 54 170 100z" />
    <glyph glyph-name="afii10027" unicode="&#x419;" horiz-adv-x="755" 
d="M801 866c0 -10 -15 -38 -44 -64s-56 -47 -83 -60c-46 -23 -92 -34 -123 -34c-32 -1 -59 11 -58 25c0 5 4 16 7 22c8 18 21 35 44 35c15 0 18 -19 97 -19c31 0 77 24 107 60c9 10 14 21 17 33s11 18 25 18c8 0 12 -5 11 -16zM778 104c-123 -102 -206 -138 -242 -138
c-43 0 -46 31 -46 58c0 66 60 255 118 436c-52 -64 -66 -82 -235 -275c-69 -78 -112 -126 -174 -181c-6 -6 -15 -11 -30 -17c-12 -5 -22 -8 -32 -9c-10 0 -16 4 -21 14c-3 9 -4 20 -3 35c1 14 13 51 37 113c111 281 111 271 159 417c13 39 12 43 12 56c0 15 -2 28 -26 28
c-43 0 -106 -44 -117 -53c-25 -21 -55 -43 -82 -82c-28 -41 -12 -98 -50 -98c-12 0 -22 4 -22 16c0 65 109 163 164 198c67 43 121 72 182 72c31 0 31 -31 31 -58c0 -25 -25 -126 -105 -326c-36 -91 -69 -185 -70 -203c-1 -7 1 -10 6 -11c16 0 61 36 128 112
c27 31 140 161 234 288c47 64 48 66 69 100c20 31 36 40 54 50c13 7 37 6 43 6c5 0 8 -2 8 -9c-1 -7 -6 -13 -17 -37c-37 -78 -61 -143 -103 -256c-27 -73 -76 -237 -76 -300c0 -11 -1 -30 26 -30c43 0 118 54 170 100z" />
    <glyph glyph-name="afii10028" unicode="&#x41a;" horiz-adv-x="612" 
d="M651 662c0 -42 -51 -91 -97 -113l-4 6c13 14 24 32 24 48c0 13 -8 18 -20 18c-24 0 -66 -19 -110 -62c-57 -56 -136 -142 -136 -142s11 -21 22 -56c20 -65 47 -141 66 -192c33 -89 70 -151 114 -151c37 0 64 15 110 54l7 -21c-68 -67 -123 -92 -179 -92
c-39 0 -91 34 -132 148c-32 89 -64 199 -76 229c-11 -19 -46 -55 -75 -129c-20 -50 -36 -107 -36 -107c-7 -20 -10 -38 -15 -47c-3 -7 -7 -14 -12 -20c-11 -14 -35 -32 -53 -32c-15 0 -21 6 -21 18c0 13 32 113 69 232c35 112 74 243 105 335c10 29 28 77 38 92
c17 23 58 35 77 35c4 0 4 -5 4 -13c0 -12 -21 -52 -31 -78c-26 -70 -88 -264 -103 -319l3 -1l40 54c2 13 5 36 27 58c9 9 23 13 30 13c66 74 108 118 160 170c54 53 124 87 168 87c11 0 36 -1 36 -22z" />
    <glyph glyph-name="afii10029" unicode="&#x41b;" horiz-adv-x="604" 
d="M655 131c-25 -21 -57 -48 -123 -87c-72 -43 -100 -58 -130 -58c-34 0 -40 29 -40 54c0 88 86 356 86 356l-5 3c-23 -35 -112 -164 -167 -229c-116 -138 -170 -170 -219 -170c-34 0 -47 23 -47 60c0 21 12 43 24 58c11 14 31 23 46 28c2 -22 1 -60 34 -60
c40 0 81 28 168 132c86 103 159 222 180 260c19 58 50 164 76 202c33 38 62 48 79 48c10 0 12 -4 12 -19c0 -27 -39 -115 -65 -177c-34 -79 -120 -401 -120 -430c0 -15 -9 -52 27 -52c42 0 106 41 177 93z" />
    <glyph glyph-name="afii10030" unicode="&#x41c;" horiz-adv-x="819" 
d="M877 136c-36 -27 -63 -48 -127 -86c-89 -53 -125 -66 -146 -66c-32 0 -34 24 -34 40c0 49 112 379 112 379l-4 1c-52 -67 -131 -170 -268 -328c-22 -25 -66 -75 -86 -75c-17 0 -19 9 -19 26c0 32 62 237 95 365l16 63l-5 2c-15 -28 -146 -232 -196 -297
c-104 -136 -153 -168 -199 -168c-39 0 -41 40 -41 57c0 48 32 88 63 104l6 -1c-2 -29 0 -70 28 -70c22 0 62 24 138 122c67 86 180 267 220 350c21 57 18 58 34 86c11 18 32 32 48 32c23 0 34 3 34 -16c0 -44 -23 -88 -42 -148c-40 -124 -89 -305 -96 -339
c-2 -8 -13 -49 -5 -49c14 0 222 241 315 404c25 71 32 104 58 138c20 26 40 31 60 31c14 0 15 -14 15 -33c0 -30 -44 -130 -68 -170c-23 -66 -126 -373 -126 -395c0 -17 -14 -41 25 -41c40 0 118 52 185 98z" />
    <glyph glyph-name="afii10031" unicode="&#x41d;" horiz-adv-x="569" 
d="M621 132c-35 -33 -72 -70 -125 -104c-59 -38 -81 -44 -108 -44c-49 0 -56 44 -56 72c0 73 60 280 78 336c0 0 -129 -86 -205 -86c-29 0 -44 5 -44 5c-15 -47 -68 -253 -86 -282c-17 -28 -40 -37 -52 -37c-25 0 -28 11 -28 33c0 15 39 133 56 177l51 131
c-7 8 -12 19 -12 41c0 23 23 50 46 49c0 0 63 195 80 219c32 45 51 40 63 40c6 0 8 -4 8 -14c0 -18 -15 -54 -33 -102l-64 -168s6 -30 68 -30c76 0 155 56 164 72c10 26 18 65 28 95c32 98 57 120 72 130s33 18 41 18c10 0 9 -6 9 -16c0 -15 -35 -98 -76 -213
c-40 -114 -89 -284 -89 -377c0 -11 0 -43 31 -43c51 0 107 52 173 114z" />
    <glyph glyph-name="afii10032" unicode="&#x41e;" horiz-adv-x="676" 
d="M667 532c0 -80 -20 -205 -110 -335c-91 -131 -205 -215 -330 -215c-100 0 -144 88 -144 168c0 217 145 383 220 428c45 88 133 130 218 130c108 0 146 -92 146 -176zM589 512c0 59 -15 157 -114 157c-67 0 -114 -43 -130 -75c36 23 86 39 117 39c28 0 40 -2 40 -15
c0 -6 -3 -8 -7 -8c-10 0 -17 6 -33 6c-37 0 -98 -20 -129 -53c-2 -11 1 -16 -2 -27c-4 -13 -19 -16 -30 -16c-9 0 -10 12 -8 20c-50 -55 -122 -148 -122 -338c0 -83 28 -165 122 -165c71 0 135 47 192 126c66 91 104 243 104 349z" />
    <glyph glyph-name="afii10033" unicode="&#x41f;" horiz-adv-x="639" 
d="M674 116c-123 -102 -206 -138 -242 -138c-43 0 -54 15 -54 54c0 24 18 91 45 181c76 255 93 350 93 369c0 9 -3 14 -10 14c-31 0 -120 -116 -120 -116c-97 -94 -215 -349 -248 -425c-11 -16 -48 -50 -74 -50c-15 0 -12 7 -13 20c1 14 18 63 29 98c31 95 90 255 112 324
c6 20 38 111 38 125c0 28 -2 27 -11 27c-28 0 -76 -38 -153 -115l-6 20c115 113 208 171 242 171c13 0 22 -5 22 -23c0 -29 -9 -49 -19 -85c-26 -96 -116 -341 -116 -341l5 -4c179 325 337 451 381 451c29 0 29 -27 29 -59c0 -38 -52 -211 -83 -329
c-11 -41 -52 -184 -53 -202c0 -11 -13 -51 26 -51c43 0 118 54 170 100z" />
    <glyph glyph-name="afii10034" unicode="&#x420;" horiz-adv-x="643" 
d="M708 582c0 -140 -192 -279 -382 -292c-21 -68 -39 -110 -46 -154c-6 -38 -2 -57 -2 -76c0 -5 -11 -31 -18 -40c-15 -20 -31 -36 -56 -36c-8 0 -21 8 -21 31c0 46 21 111 43 175c11 32 33 93 33 93c-36 1 -58 9 -58 24c0 12 0 32 15 33c12 0 14 -14 28 -21
c12 -6 28 -5 28 -5c33 89 66 180 108 294c38 35 80 26 80 26c-13 -43 -87 -216 -122 -318c140 4 294 111 294 242c0 69 -52 112 -159 112c-144 0 -309 -57 -373 -130c-20 -23 -5 -54 -30 -54c-14 0 -28 -1 -28 22c0 49 238 204 476 204c142 0 190 -54 190 -130z" />
    <glyph glyph-name="afii10035" unicode="&#x421;" horiz-adv-x="477" 
d="M537 650c0 -27 -11 -51 -36 -77c-11 -12 -48 -42 -72 -42c-4 0 -6 2 -6 7c21 18 35 47 35 80c0 21 -20 28 -42 28c-121 0 -292 -205 -292 -433c0 -111 38 -179 131 -179c127 0 229 109 247 109c5 0 7 -5 5 -15c-2 -11 -91 -85 -212 -129c-34 -12 -74 -19 -107 -19
c-79 0 -138 53 -138 156c0 68 10 130 45 215c58 143 147 247 249 309c46 28 91 42 125 42c31 0 68 -9 68 -52z" />
    <glyph glyph-name="afii10036" unicode="&#x422;" horiz-adv-x="872" 
d="M904 116c-145 -100 -243 -146 -285 -146c-19 0 -22 20 -20 37c2 24 28 114 54 206c28 99 93 293 96 326c0 10 4 19 -5 19s-32 -30 -58 -58c-28 -30 -114 -144 -182 -248c-42 -64 -97 -201 -101 -207c-21 -31 -46 -43 -73 -43c-4 0 -5 0 -5 5c0 21 5 31 27 101l111 355
c14 44 22 78 23 92c0 8 -1 10 -6 12c-12 0 -46 -29 -94 -87c-83 -101 -215 -349 -248 -425c-11 -16 -48 -50 -74 -50c-15 0 -12 7 -13 20c1 14 18 63 29 98c31 95 90 255 112 324c6 20 38 111 38 125c0 28 -2 27 -11 27c-28 0 -76 -38 -153 -115l-6 20
c115 113 208 171 242 171c13 0 22 -5 22 -23c0 -29 -9 -49 -19 -85c-26 -96 -116 -341 -116 -341l5 -4c190 354 331 451 381 451c13 0 18 -1 18 -24c0 -39 -99 -321 -116 -380h3c169 228 278 392 353 392c17 0 18 -12 18 -25c0 -30 -69 -237 -100 -351
c-11 -41 -52 -184 -53 -202c0 -11 -13 -37 12 -37c43 0 116 40 184 86z" />
    <glyph glyph-name="afii10037" unicode="&#x423;" horiz-adv-x="623" 
d="M693 683c0 -44 -45 -104 -70 -145c-37 -108 -69 -208 -110 -294c-78 -166 -204 -267 -347 -267c-55 0 -87 11 -86 31c0 3 3 20 19 20c23 0 22 -31 59 -31c112 0 172 46 251 179c39 66 69 152 119 275l-3 1c-29 -36 -128 -116 -204 -170c-19 -13 -64 -34 -95 -34
c-17 0 -21 12 -21 39c0 23 41 123 66 181c30 67 51 139 51 167c0 15 -2 28 -26 28c-43 0 -106 -44 -117 -53c-25 -21 -55 -43 -82 -82c-28 -41 -12 -98 -50 -98c-12 0 -22 4 -22 16c0 65 109 163 164 198c67 43 121 72 182 72c31 0 31 -31 31 -58c0 -33 -29 -113 -50 -171
c-18 -49 -52 -141 -52 -153c0 -7 4 -11 13 -11c10 0 16 4 29 10c58 25 169 134 211 204c12 37 24 67 36 92c12 24 22 39 31 47c18 15 37 22 60 23c9 0 13 -5 13 -16z" />
    <glyph glyph-name="afii10038" unicode="&#x424;" horiz-adv-x="817" 
d="M810 442c0 -88 -55 -175 -118 -228c-76 -64 -180 -113 -291 -113c-6 -25 -12 -58 -18 -77c-3 -8 -5 -12 -9 -19c-5 -12 -21 -29 -46 -46c-9 -6 -20 -9 -29 -11c-14 0 -20 4 -21 14c1 12 27 83 43 138c-150 0 -229 65 -229 181c0 197 232 307 404 315c21 54 39 97 48 109
c5 7 14 15 27 19c15 4 40 7 52 7c7 0 7 -6 7 -9c0 -5 -54 -118 -54 -118h20c139 0 214 -48 214 -162zM725 434c0 99 -58 138 -145 138h-17c-86 -228 -101 -280 -124 -350c-12 -36 -22 -65 -30 -92c82 0 146 17 210 74c75 66 106 156 106 230zM482 564
c-141 -4 -306 -97 -306 -284c0 -90 45 -150 154 -152c11 37 21 72 33 106c33 96 71 203 119 330z" />
    <glyph glyph-name="afii10039" unicode="&#x425;" horiz-adv-x="505" 
d="M552 117c-46 -39 -136 -125 -224 -125c-66 0 -108 87 -130 267c-23 -29 -61 -73 -106 -159c-28 -54 -43 -132 -60 -132c-20 0 -26 14 -26 31c12 28 84 165 182 292c-20 138 -31 220 -34 247c-4 35 -12 47 -20 52c-9 5 -22 0 -22 16c0 15 17 50 34 72c11 15 23 22 30 22
c12 0 28 1 37 -49c14 -80 22 -207 34 -285c67 96 153 201 192 250c31 39 62 75 77 75c9 0 21 -3 21 -22c0 -36 -23 -38 -78 -95c-34 -35 -147 -161 -203 -247c30 -202 62 -283 120 -283c52 0 127 50 166 89z" />
    <glyph glyph-name="afii10040" unicode="&#x426;" horiz-adv-x="737" 
d="M773 658c-1 -7 -6 -13 -17 -37c-37 -78 -66 -158 -108 -271c-27 -73 -80 -243 -80 -308c0 -75 34 -138 34 -180c0 -105 -98 -207 -193 -254l-6 10c59 37 141 104 141 191c0 65 -54 146 -54 215c0 66 60 255 118 436c-52 -64 -76 -100 -238 -284
c-69 -78 -109 -117 -171 -172c-6 -6 -18 -12 -30 -17s-20 -9 -32 -9c-16 0 -24 16 -24 41c0 14 13 59 37 121c111 281 111 271 159 417c13 39 12 43 12 56c0 15 -2 28 -26 28c-43 0 -106 -44 -117 -53c-25 -21 -55 -43 -82 -82c-28 -41 -12 -98 -50 -98c-12 0 -22 4 -22 16
c0 65 109 163 164 198c67 43 121 72 182 72c31 0 31 -27 31 -58c0 -30 -29 -129 -105 -326c-35 -91 -69 -185 -70 -203c-1 -7 1 -10 6 -11c16 0 61 36 128 112c27 31 140 161 234 288c47 64 53 81 74 115c20 31 36 40 54 50c13 7 37 6 43 6c5 0 8 -2 8 -9z" />
    <glyph glyph-name="afii10041" unicode="&#x427;" horiz-adv-x="656" 
d="M705 683c0 -44 -45 -104 -70 -145c-37 -108 -147 -346 -147 -467c0 -11 -2 -35 29 -35c51 0 107 52 173 114l10 -16c-35 -33 -72 -70 -125 -104c-59 -38 -85 -48 -112 -48c-41 0 -50 40 -50 68c0 96 77 278 127 401l-3 1c-29 -36 -128 -116 -204 -170
c-19 -13 -64 -34 -95 -34c-17 0 -21 12 -21 39c0 23 41 123 66 181c30 67 51 139 51 167c0 15 -2 28 -26 28c-43 0 -111 -44 -122 -53c-43 -33 -95 -83 -132 -152c-23 -43 -12 -98 -50 -98c-12 0 -22 4 -22 16c0 95 164 233 219 268c67 43 121 72 182 72c31 0 31 -31 31 -58
c0 -33 -29 -113 -50 -171c-18 -49 -52 -141 -52 -153c0 -7 4 -11 13 -11c10 0 16 4 29 10c58 25 169 134 211 204c12 37 24 67 36 92c12 24 22 39 31 47c18 15 37 22 60 23c9 0 13 -5 13 -16z" />
    <glyph glyph-name="afii10042" unicode="&#x428;" horiz-adv-x="1040" 
d="M1056 102c-123 -102 -206 -138 -242 -138c-43 0 -46 31 -46 58c0 66 51 239 109 405c-64 -83 -234 -323 -344 -419c-11 -9 -40 -24 -62 -26c-18 0 -24 28 -24 49c0 46 52 232 110 398c-64 -83 -260 -329 -370 -425c-6 -5 -15 -11 -30 -17c-12 -5 -22 -8 -32 -9
c-10 0 -16 4 -21 14c-3 9 -4 20 -3 35c1 14 13 51 37 113c111 281 111 271 159 417c13 39 12 43 12 56c0 15 -2 28 -26 28c-69 0 -184 -103 -227 -183c-23 -43 -12 -98 -50 -98c-12 0 -22 4 -22 16c0 65 135 207 190 242c67 43 123 76 184 76c31 0 31 -31 31 -58
c0 -25 -25 -126 -105 -326c-36 -91 -69 -185 -70 -203c-1 -7 2 -11 6 -11c33 0 164 151 322 363c47 63 58 103 79 137c20 31 36 40 54 50c13 7 37 6 43 6c5 0 8 -2 8 -9c-1 -7 -6 -13 -17 -37c-37 -78 -61 -143 -103 -256c-27 -73 -70 -249 -70 -263c0 -7 2 -11 6 -11
c33 0 162 169 320 381c47 63 58 103 79 137c20 31 36 40 54 50c13 7 37 6 43 6c5 0 8 -2 8 -9c-1 -7 -6 -13 -17 -37c-37 -78 -61 -143 -103 -256c-27 -73 -76 -237 -76 -300c0 -11 -1 -30 26 -30c43 0 118 54 170 100z" />
    <glyph glyph-name="afii10043" unicode="&#x429;" horiz-adv-x="1015" 
d="M1058 641c-1 -7 -6 -13 -17 -37c-37 -78 -61 -143 -103 -256c-27 -73 -76 -174 -76 -276c0 -87 34 -138 34 -180c0 -105 -126 -226 -187 -245l-12 1c59 41 141 104 141 191c0 65 -53 145 -53 212c0 123 46 210 104 376c-64 -83 -234 -323 -344 -419
c-11 -9 -40 -24 -62 -26c-18 0 -24 28 -24 49c0 46 52 232 110 398c-64 -83 -260 -329 -370 -425c-6 -5 -15 -11 -30 -17c-12 -5 -22 -8 -32 -9c-10 0 -16 4 -21 14c-3 9 -4 20 -3 35c1 14 13 51 37 113c111 281 111 271 159 417c13 39 12 43 12 56c0 15 -2 28 -26 28
c-69 0 -184 -103 -227 -183c-23 -43 -12 -98 -50 -98c-12 0 -22 4 -22 16c0 65 135 207 190 242c67 43 123 76 184 76c31 0 31 -31 31 -58c0 -25 -25 -126 -105 -326c-36 -91 -69 -185 -70 -203c-1 -7 2 -11 6 -11c33 0 164 151 322 363c47 63 58 103 79 137
c20 31 36 40 54 50c13 7 37 6 43 6c5 0 8 -2 8 -9c-1 -7 -6 -13 -17 -37c-37 -78 -61 -143 -103 -256c-27 -73 -70 -249 -70 -263c0 -7 2 -11 6 -11c33 0 162 169 320 381c47 63 58 103 79 137c20 31 36 40 54 50c13 7 37 6 43 6c5 0 8 -2 8 -9z" />
    <glyph glyph-name="afii10044" unicode="&#x42a;" horiz-adv-x="581" 
d="M508 272c0 45 -13 90 -68 90c-35 0 -72 -20 -102 -46l-6 14c54 56 118 85 161 85c53 0 86 -27 86 -95c0 -157 -205 -330 -322 -330c-40 0 -94 18 -94 110c0 123 101 347 122 394c39 87 69 154 75 176c-94 0 -165 -26 -240 -96c-32 -30 -16 -66 -44 -66
c-14 0 -28 -1 -28 22c0 67 254 179 366 179c13 0 23 -5 23 -20s-46 -113 -46 -113c-41 -101 -152 -347 -152 -460c0 -42 24 -73 68 -73c114 0 202 131 201 229z" />
    <glyph glyph-name="afii10045" unicode="&#x42b;" horiz-adv-x="696" 
d="M706 576c0 -55 -44 -170 -71 -263c-49 -173 -49 -308 -51 -375c-43 2 -68 51 -68 94c0 70 27 204 48 286c9 37 63 203 63 243c0 26 -4 41 -27 41c-77 0 -300 -104 -300 -158c0 -83 116 -102 116 -198c0 -56 -13 -68 -56 -121c-59 -73 -213 -151 -292 -151
c-44 0 -66 26 -66 76c0 85 54 216 96 348c19 60 73 198 100 262c26 34 62 42 76 42c7 0 6 -5 6 -10c0 -7 -17 -44 -32 -84c-16 -43 -49 -129 -116 -324c-17 -49 -48 -158 -48 -202c0 -32 3 -55 45 -55c121 0 205 120 205 191c0 94 -103 118 -103 185c0 101 335 240 427 240
c25 0 48 -6 48 -67z" />
    <glyph glyph-name="afii10046" unicode="&#x42c;" horiz-adv-x="480" 
d="M473 320c0 -157 -208 -330 -323 -330c-47 0 -94 18 -94 110c0 123 103 346 122 394c60 155 59 149 82 174c20 23 58 42 80 42c4 0 6 -3 6 -9l-62 -125c-49 -98 -152 -347 -152 -460c0 -42 23 -70 64 -70c121 0 206 128 206 226c0 45 -13 90 -68 90
c-35 0 -72 -20 -102 -46l-6 14c54 56 118 85 161 85c53 0 86 -27 86 -95z" />
    <glyph glyph-name="afii10047" unicode="&#x42d;" horiz-adv-x="575" 
d="M580 539c0 -32 -17 -128 -43 -188l25 -1c13 -1 14 -2 15 -10c-1 -6 -3 -17 -18 -21s-22 -4 -40 -5c-24 -60 -116 -204 -216 -271c-53 -36 -113 -61 -183 -61c-54 0 -95 19 -95 68c0 23 18 47 49 52c5 -39 25 -86 86 -86c79 0 206 79 289 297c-20 0 -86 -5 -163 -21
c-61 -13 -115 -46 -136 -46c-5 0 -8 5 -8 13c0 11 3 21 14 33c21 23 60 34 114 42c77 11 196 15 196 15c14 43 25 100 25 149c0 54 -11 151 -121 151c-62 0 -137 -18 -205 -76c-70 -60 -60 -105 -88 -105c-14 0 -28 -1 -28 22c0 52 221 210 393 210c122 0 138 -87 138 -161z
" />
    <glyph glyph-name="afii10048" unicode="&#x42e;" horiz-adv-x="835" 
d="M882 546c0 -198 -282 -580 -488 -580c-78 0 -125 34 -119 136c5 71 26 137 47 196c-30 -17 -80 -34 -135 -34c-29 0 -43 6 -43 6c-45 -132 -48 -205 -72 -240c-18 -27 -37 -38 -49 -38c-25 0 -28 11 -28 33c0 15 38 130 53 177l26 84c-9 22 -2 24 -2 46c0 18 23 50 46 49
c0 0 81 237 98 261c32 45 51 40 63 40c6 0 8 -4 8 -14c-1 -13 -15 -56 -33 -102l-82 -210s6 -40 68 -40c76 0 98 25 114 44c75 149 147 261 232 274c61 33 121 50 182 50c77 0 114 -45 114 -138zM796 496c0 57 -15 134 -94 134c-25 0 -52 0 -84 -12c-9 -27 -58 -90 -90 -134
c-36 -49 -75 -99 -116 -138c-6 -18 -51 -140 -51 -215c0 -77 25 -111 91 -111c143 0 344 297 344 476z" />
    <glyph glyph-name="afii10049" unicode="&#x42f;" horiz-adv-x="643" 
d="M662 107c-76 -60 -191 -125 -258 -125c-31 0 -46 22 -46 54c0 58 24 130 24 164c0 24 5 40 -14 43c-121 -186 -228 -255 -287 -255c-48 0 -64 32 -64 72c0 18 4 30 9 42c15 21 36 32 52 34c0 -42 6 -84 52 -84c82 0 186 149 217 199c-45 4 -137 30 -137 159
c0 183 190 285 250 285c59 0 80 -56 80 -96c0 -132 -132 -299 -132 -299c15 -5 36 -8 36 -56c0 -42 -16 -111 -16 -152c0 -19 -13 -64 36 -64c60 0 131 54 192 92zM484 545c0 96 -37 104 -58 104c-64 0 -148 -62 -148 -207c0 -100 64 -132 110 -135c51 69 96 180 96 238z
" />
    <glyph glyph-name="afii10065" unicode="&#x430;" horiz-adv-x="484" 
d="M526 123c-62 -55 -197 -155 -247 -155c-20 0 -31 19 -31 44c0 28 8 76 14 98h-4c-60 -74 -133 -121 -187 -121c-50 0 -62 35 -62 89c0 73 44 184 115 252c86 82 163 109 236 109c26 0 90 -12 90 -57c0 -29 -8 -36 -35 -61c-11 -29 -25 -48 -41 -91
c-31 -83 -54 -150 -54 -163c0 -29 9 -35 19 -35c48 0 116 57 178 103zM383 372c-4 20 -44 32 -56 32c-70 0 -120 -28 -179 -116c-32 -48 -59 -140 -59 -181c0 -43 21 -55 39 -55c45 0 109 43 155 142c20 43 29 80 42 110c9 22 37 69 58 68z" />
    <glyph glyph-name="afii10066" unicode="&#x431;" horiz-adv-x="389" 
d="M117 104c0 -36 11 -64 37 -64c36 0 68 24 102 84c33 60 52 145 52 217c0 91 -77 202 -119 258c-15 20 -19 34 -17 55c2 27 24 61 73 105c65 59 97 85 208 133c49 22 105 29 134 29c27 0 40 1 38 -20c-1 -11 -12 -40 -26 -40c-15 0 -47 6 -78 6c-27 0 -72 9 -158 -45
c-89 -56 -119 -94 -119 -133c0 -17 4 -27 12 -42c41 -72 119 -164 119 -306c0 -60 -27 -146 -83 -225c-61 -87 -117 -131 -175 -131c-48 0 -83 26 -83 103c0 80 62 204 82 237c46 76 90 125 112 125c14 0 17 -7 17 -31c0 -52 -70 -159 -112 -215c-7 -20 -16 -54 -16 -100z
M203 395c-20 0 -62 -129 -64 -150c21 22 52 81 62 115c5 18 15 35 2 35z" />
    <glyph glyph-name="afii10067" unicode="&#x432;" horiz-adv-x="421" 
d="M489 718c0 -40 -53 -134 -211 -268c-40 -34 -88 -74 -126 -106c0 0 -25 -64 -34 -89h3c52 76 136 110 177 110c66 0 83 -38 83 -93s-40 -157 -113 -220c49 0 141 45 182 74l1 -20c-47 -32 -134 -72 -207 -77c-29 -27 -82 -61 -133 -61c-86 0 -94 71 -94 124
c0 42 25 131 50 202c-8 -4 -13 -4 -13 6c0 9 22 21 22 21c33 84 87 198 121 249c97 143 181 200 242 200c51 0 50 -31 50 -52zM421 686c0 27 -7 38 -32 38c-58 0 -144 -125 -227 -342c25 23 73 56 130 113c83 83 129 134 129 191zM304 240c0 58 -16 77 -52 77
c-44 0 -122 -49 -122 -163c0 -83 38 -106 93 -103c8 7 16 16 24 27c42 56 57 132 57 162zM194 27c-54 -3 -80 26 -95 58l-3 -1c-2 -46 24 -75 51 -75c25 0 47 18 47 18z" />
    <glyph glyph-name="afii10068" unicode="&#x433;" horiz-adv-x="329" 
d="M346 123c-22 -21 -80 -64 -113 -86c-72 -47 -106 -58 -126 -58c-30 0 -28 19 -28 39c0 14 24 85 46 147c27 77 49 136 49 164c0 7 -1 20 -15 20c-17 0 -31 -5 -82 -49c-10 -1 -12 10 -12 10c112 103 149 115 171 115c11 0 27 1 27 -37c0 -29 -22 -90 -50 -171
c-11 -30 -46 -128 -46 -150c0 -17 8 -24 18 -24c42 0 112 62 152 92z" />
    <glyph glyph-name="afii10069" unicode="&#x434;" horiz-adv-x="364" 
d="M377 476c0 -77 -35 -200 -85 -294c-83 -155 -160 -199 -218 -199c-38 0 -50 37 -50 87c0 73 47 184 67 217c46 76 90 125 112 125c14 0 17 -7 17 -31c0 -52 -70 -159 -112 -215c0 0 -4 -35 -4 -46c0 -48 0 -76 34 -76c29 0 71 20 128 150c35 80 44 188 44 226
c0 189 -61 252 -124 252c-17 0 -33 0 -48 -9c-21 -13 -25 -23 -25 -33c0 -11 6 -9 6 -15c0 -4 0 -6 -5 -6s-16 11 -16 29c0 53 54 88 118 88c91 0 161 -66 161 -250zM178 357c-20 0 -62 -129 -64 -150c21 22 52 81 62 115c5 18 15 35 2 35z" />
    <glyph glyph-name="afii10070" unicode="&#x435;" horiz-adv-x="399" 
d="M429 104c-1 -10 -153 -119 -287 -119c-83 0 -126 39 -126 125c0 56 30 144 99 226c81 97 171 135 220 135c38 0 51 -9 51 -34c0 -32 -50 -85 -120 -151c-56 -53 -158 -146 -158 -146c-5 -84 31 -110 92 -110c105 0 224 93 224 93c5 -8 6 -10 5 -19zM301 392
c0 21 -15 24 -29 24c-25 0 -68 -20 -101 -62c-29 -37 -63 -111 -66 -181c0 0 70 58 120 109c44 45 76 81 76 110z" />
    <glyph glyph-name="afii10072" unicode="&#x436;" horiz-adv-x="725" 
d="M771 124c0 -26 -147 -129 -227 -129c-43 0 -65 25 -65 86c0 22 13 89 28 136l-4 4c-49 -62 -109 -142 -138 -175c-28 -32 -45 -50 -59 -50c-7 0 -11 3 -11 10c0 16 11 53 27 102c16 50 58 173 86 247c-48 -32 -136 -119 -136 -119c-23 -59 -48 -122 -86 -178
c-25 -37 -55 -70 -95 -70c-17 0 -24 9 -24 25c0 34 52 113 94 152l29 27c7 12 23 86 23 129c0 53 -2 104 -42 104c-25 0 -58 -25 -85 -52c-33 -33 -56 -69 -66 -82c-5 0 -10 3 -10 9c0 5 11 20 19 31c40 56 131 148 204 148c49 0 65 -37 65 -95c0 -35 -10 -86 -18 -116
c0 0 44 46 90 85c40 34 86 72 119 72c4 0 7 -3 7 -9c0 -13 -31 -75 -109 -303l3 -1l160 200c34 52 49 79 82 116c20 22 37 21 46 21c13 0 22 -7 22 -19c0 -28 -14 -56 -75 -109c-31 -52 -62 -124 -62 -213c0 -27 -1 -69 32 -69c71 0 155 89 155 89c7 3 11 6 16 6
c4 0 6 -3 5 -10z" />
    <glyph glyph-name="afii10073" unicode="&#x437;" horiz-adv-x="339" 
d="M357 401c0 -103 -178 -211 -178 -228s85 -87 85 -185c0 -187 -250 -361 -385 -361c-68 0 -94 32 -94 82c0 103 184 197 212 197c4 0 7 -3 7 -8c-1 -8 -8 -12 -31 -22c-57 -25 -111 -79 -111 -137c0 -29 14 -66 64 -66c80 0 256 100 256 267c0 129 -82 154 -82 195
c0 32 34 47 87 87c48 35 84 83 88 142c3 40 -12 57 -57 57c-38 0 -66 -24 -81 -44s-36 -45 -54 -45c-26 0 -24 19 -24 28c0 16 27 37 46 49c31 18 109 61 180 61c50 0 72 -25 72 -69z" />
    <glyph glyph-name="afii10074" unicode="&#x438;" horiz-adv-x="488" 
d="M533 114c-23 -18 -68 -46 -124 -80c-72 -43 -119 -58 -141 -58c-17 0 -19 11 -19 22c0 28 24 103 43 166c14 48 24 80 24 80s-118 -124 -242 -223c-27 -21 -46 -27 -54 -27c-12 0 -20 9 -20 28c0 18 4 38 32 109l54 137c20 51 32 89 43 112c21 46 67 63 86 63
c5 0 7 -3 7 -11c-1 -10 -3 -29 -17 -64l-61 -157c-9 -23 -35 -87 -35 -94c0 -5 -1 -12 8 -12c15 0 44 22 79 54c62 57 92 82 140 150c15 29 28 83 55 111c24 24 47 30 62 30c7 0 16 -4 16 -18c0 -18 -12 -51 -50 -104c-12 -26 -25 -70 -37 -109c-9 -30 -46 -149 -46 -160
c0 -10 2 -17 11 -17c50 0 115 44 177 84z" />
    <glyph glyph-name="afii10075" unicode="&#x439;" horiz-adv-x="503" 
d="M265 533c0 5 4 16 6 22c8 18 22 47 45 47c15 0 9 -41 88 -41c49 0 109 45 124 93c4 12 11 18 25 18c8 0 12 -5 11 -16c0 -10 -15 -41 -43 -67c-77 -69 -146 -81 -198 -81c-32 0 -59 11 -58 25zM537 114c-23 -18 -68 -46 -124 -80c-72 -43 -119 -58 -141 -58
c-17 0 -19 11 -19 22c0 28 24 103 43 166c14 48 24 80 24 80s-118 -124 -242 -223c-27 -21 -46 -27 -54 -27c-12 0 -20 9 -20 28c0 18 4 38 32 109l54 137c20 51 32 89 43 112c21 46 67 63 86 63c5 0 7 -3 7 -11c-1 -10 -3 -29 -17 -64l-61 -157c-9 -23 -35 -87 -35 -94
c0 -5 -1 -12 8 -12c15 0 44 22 79 54c62 57 92 82 140 150c15 29 28 83 55 111c24 24 47 30 62 30c7 0 16 -4 16 -18c0 -18 -12 -51 -50 -104c-12 -26 -25 -70 -37 -109c-9 -30 -46 -149 -46 -160c0 -10 2 -17 11 -17c50 0 115 44 177 84z" />
    <glyph glyph-name="afii10076" unicode="&#x43a;" horiz-adv-x="515" 
d="M541 79c-71 -60 -164 -119 -236 -119c-50 0 -96 19 -120 117c-19 78 -23 114 -30 138c-10 -14 -20 -26 -31 -51c-17 -40 -35 -85 -35 -85c-12 -30 -18 -44 -27 -53c-10 -10 -39 -25 -55 -25s-21 4 -21 14c0 7 6 23 22 65c15 40 23 66 40 112c32 88 58 161 68 189
c9 25 15 43 25 54c17 19 54 29 73 29c6 0 7 -5 7 -11c0 -9 -12 -38 -21 -59c-22 -55 -42 -104 -56 -147l5 -1c48 52 76 83 148 142c53 43 122 69 165 69c10 0 35 -1 35 -25c0 -23 -26 -63 -102 -110l-6 9c25 19 33 49 33 62c0 8 -8 14 -20 14c-23 0 -64 -15 -108 -49
c-57 -44 -89 -85 -89 -85s11 1 16 1c7 0 15 -3 18 -19c7 -37 16 -90 26 -133c15 -66 42 -108 93 -108c72 0 136 52 174 83z" />
    <glyph glyph-name="afii10077" unicode="&#x43b;" horiz-adv-x="481" 
d="M522 122c-22 -16 -80 -56 -118 -78c-80 -47 -108 -55 -129 -55c-17 0 -21 16 -21 28c0 26 13 77 38 177l10 40l-4 2c-22 -24 -55 -69 -93 -114c-84 -100 -132 -119 -166 -119c-30 0 -39 28 -39 56c0 16 7 57 23 75c10 11 27 18 40 22c-1 -18 -4 -74 28 -74
c19 0 40 0 106 74c64 72 92 108 117 145c13 44 29 86 48 120c20 23 64 31 78 31c9 0 11 -3 11 -14c0 -21 -30 -91 -54 -138c-28 -72 -63 -204 -63 -226c0 -9 -3 -24 14 -24c37 0 103 44 165 84z" />
    <glyph glyph-name="afii10078" unicode="&#x43c;" horiz-adv-x="715" 
d="M749 123c-26 -19 -83 -54 -121 -77c-74 -45 -125 -59 -145 -59c-16 0 -17 16 -17 28c0 26 47 181 47 181l-3 1c-46 -52 -68 -67 -168 -151c-22 -18 -69 -45 -86 -45c-15 0 -17 7 -17 20c0 24 17 74 46 173l14 48l-4 2c-10 -14 -59 -77 -97 -122
c-84 -100 -132 -115 -166 -115c-30 0 -39 24 -39 52c0 16 10 58 25 73c11 11 23 21 38 24c-1 -17 -2 -74 24 -74c19 0 44 -2 110 74c55 63 105 130 124 166c18 44 15 57 34 91c19 21 40 27 54 27c20 0 29 3 29 -12c0 -34 -17 -81 -41 -128c-33 -96 -61 -187 -61 -194
c0 -6 -3 -14 7 -14c12 0 112 57 191 161c22 55 46 152 78 184c16 16 35 19 61 19c15 0 13 -12 13 -25c0 -40 -43 -114 -64 -145c-20 -51 -61 -196 -61 -213c0 -13 -5 -26 18 -26c30 0 106 48 168 88z" />
    <glyph glyph-name="afii10079" unicode="&#x43d;" horiz-adv-x="495" 
d="M533 114c-23 -18 -69 -51 -124 -80c-71 -37 -121 -58 -141 -58c-17 0 -19 11 -19 22c0 21 24 103 43 166c5 18 22 68 22 68s-39 -33 -127 -58c-31 -9 -60 -11 -60 -11c-5 -33 -27 -115 -53 -142c-22 -23 -38 -27 -54 -27c-22 0 -24 8 -24 25c0 13 20 66 29 95l17 53
c-9 11 -9 9 -9 26c0 14 16 27 38 29l9 22c23 57 43 124 59 150c23 38 57 49 76 49c5 0 7 -3 7 -11c0 -7 -19 -50 -31 -82c-21 -57 -48 -140 -48 -140s23 -1 51 3c80 11 121 38 129 50c8 20 9 23 17 47c15 45 24 82 51 110c15 15 19 16 35 24c10 5 20 6 27 6
c9 0 16 -4 16 -18c0 -36 -29 -94 -74 -158c-32 -89 -59 -180 -59 -210c0 -9 -1 -22 11 -22c48 0 115 44 177 84z" />
    <glyph glyph-name="afii10080" unicode="&#x43e;" horiz-adv-x="462" 
d="M501 110c-85 -61 -160 -104 -260 -104c-13 0 -24 1 -33 4c-32 -17 -65 -25 -99 -25c-47 0 -95 28 -95 109c0 37 7 66 19 106c19 64 51 129 76 154c9 9 25 18 43 18c13 0 18 -5 22 -9h3c44 39 86 82 165 82c51 0 89 -30 89 -108c0 -97 -80 -239 -183 -300
c1 -1 14 -4 35 -4c57 0 134 34 209 89zM351 304c0 48 -17 83 -68 83c-15 0 -48 -7 -71 -26c-26 -22 -69 -84 -76 -184c-1 -23 -4 -119 78 -133c85 42 137 174 137 260zM157 28c-64 40 -55 130 -50 172h-3c-4 -12 -11 -30 -14 -75c-6 -83 43 -97 57 -97h10z" />
    <glyph glyph-name="afii10081" unicode="&#x43f;" horiz-adv-x="464" 
d="M510 123c-22 -21 -85 -58 -118 -79c-68 -44 -117 -67 -137 -67c-12 0 -13 10 -13 21c0 21 24 103 43 166c23 77 47 148 49 174c0 7 3 12 -12 12c-17 0 -86 -64 -146 -137c-37 -45 -56 -78 -75 -117c-38 -79 -53 -89 -75 -89c-13 0 -13 15 -13 19c0 15 5 36 19 66
c11 23 14 33 21 49l40 138c10 34 24 89 28 103c12 43 67 63 86 63c5 0 7 -3 7 -11c-1 -10 -14 -46 -23 -74c-23 -74 -32 -97 -47 -142h3c148 164 241 213 269 213c11 0 13 -9 12 -19c-2 -34 -26 -105 -53 -193c-9 -31 -45 -141 -46 -155c0 -9 -4 -15 9 -15
c30 0 101 46 163 86z" />
    <glyph glyph-name="afii10082" unicode="&#x440;" horiz-adv-x="446" 
d="M444 364c0 -124 -119 -276 -196 -329c-35 -24 -79 -49 -120 -49c-26 0 -35 13 -35 26c0 57 66 129 127 178c54 43 101 70 138 90c6 21 5 36 5 54c0 62 -29 75 -60 75c-30 0 -78 -29 -137 -92c-27 -62 -68 -182 -114 -314c-42 -120 -84 -243 -103 -309
c-1 -6 -2 -22 -4 -35c-2 -12 -9 -28 -32 -47c-14 -11 -29 -17 -45 -17c-10 0 -20 7 -20 26c0 12 4 36 22 83c0 0 92 245 152 406c35 93 53 148 86 240c14 38 29 88 39 98c20 20 51 32 57 32c5 0 9 0 9 -6c0 -7 -17 -63 -34 -107l5 -1c48 48 131 98 178 98
c55 0 82 -26 82 -100zM351 246c-21 -8 -82 -40 -123 -81c-35 -35 -72 -75 -72 -117c0 -11 9 -18 28 -18s42 9 66 33c30 30 82 98 101 183z" />
    <glyph glyph-name="afii10083" unicode="&#x441;" horiz-adv-x="385" 
d="M417 117c0 -10 -170 -132 -303 -132c-65 0 -106 34 -106 117c0 72 47 172 125 252c69 72 161 111 200 111c22 0 45 -2 45 -38c0 -18 -7 -57 -34 -79c-23 -19 -44 -23 -53 -23c-4 0 -6 2 -8 6l10 22c11 24 10 33 10 40c0 14 -5 21 -21 21c-85 0 -184 -144 -184 -272
c0 -46 6 -109 73 -109c38 0 83 14 107 24c76 33 123 73 127 73c5 0 13 1 12 -13z" />
    <glyph glyph-name="afii10084" unicode="&#x442;" horiz-adv-x="669" 
d="M737 592c-58 -37 -203 -92 -389 -92c-43 0 -83 14 -96 21c11 17 25 33 38 43c23 -11 80 -20 160 -20c170 0 249 42 281 52zM706 123c0 0 -85 -58 -118 -79c-68 -44 -117 -67 -137 -67c-16 0 -17 15 -17 28s24 88 47 159c24 76 47 148 49 174c0 7 4 14 -4 14
s-34 -19 -48 -33c-24 -24 -61 -63 -108 -127c-27 -36 -70 -118 -75 -123c-14 -12 -53 -49 -77 -49c-3 0 -4 1 -4 4c0 10 3 21 22 75l63 180c12 34 19 60 20 71c0 6 -1 8 -5 9c-11 0 -39 -23 -82 -67c-77 -78 -136 -191 -164 -250c-10 -12 -42 -38 -65 -38c-9 0 -11 7 -11 15
c0 10 13 47 23 74c27 73 40 114 55 167c8 29 27 97 37 120c17 40 67 63 86 63c5 0 7 -3 7 -11c-1 -10 -12 -45 -21 -73c-23 -74 -67 -185 -67 -185l4 -3c28 46 85 120 130 163c67 64 119 108 150 107c9 0 16 -4 16 -19c0 -30 -52 -170 -67 -215h3c144 172 231 224 264 224
c9 0 12 -9 12 -19c0 -23 -26 -105 -53 -193c-9 -31 -46 -138 -46 -155c0 -9 0 -15 9 -15c30 0 101 46 163 86z" />
    <glyph glyph-name="afii10085" unicode="&#x443;" horiz-adv-x="452" 
d="M481 441c0 -11 -5 -26 -16 -51c-14 -32 -37 -67 -53 -94c-16 -44 -41 -124 -112 -299c-47 -115 -96 -222 -168 -291c-79 -75 -153 -119 -218 -119c-97 0 -113 41 -113 54c5 13 13 37 23 55c13 -22 52 -62 101 -62c41 0 88 -8 163 70c65 68 168 357 226 500l-3 1
c-101 -115 -246 -227 -291 -227c-13 0 -16 12 -16 25c0 20 18 72 32 107c38 97 88 235 103 270c17 40 67 63 86 63c5 0 7 -3 7 -11c-1 -10 -5 -31 -17 -64c0 0 -107 -252 -107 -287c0 -6 1 -9 9 -10c14 0 60 31 83 53c72 69 105 112 141 171l28 74c12 31 21 49 39 65
c18 15 37 23 60 23c8 0 13 -5 13 -16z" />
    <glyph glyph-name="afii10086" unicode="&#x444;" horiz-adv-x="615" 
d="M610 317c0 -126 -145 -314 -345 -331c0 0 -40 -108 -68 -206c-14 -50 -21 -107 -26 -136c-9 -20 -30 -58 -60 -58c-14 0 -17 9 -17 19c0 23 17 90 35 151c30 102 60 188 73 229c-116 9 -178 60 -178 156c0 87 77 152 116 180c37 74 146 138 233 143l40 104
c67 174 134 214 145 214c8 0 9 -2 8 -7c0 -5 -7 -13 -9 -18c-11 -22 -29 -56 -44 -89c-28 -64 -59 -152 -80 -204c83 1 177 -33 177 -147zM357 414c-36 -3 -99 0 -170 -61l2 -2c89 55 164 55 164 55zM529 283c0 114 -80 130 -119 130l-3 -12c18 1 12 1 20 -1
c18 -4 33 -10 33 -24c0 -18 -9 -16 -16 -16c-14 0 -29 9 -48 10c-18 -58 -83 -241 -113 -338c101 -17 246 78 246 251zM342 374c-34 4 -104 -9 -161 -58c-10 -20 -22 -55 -22 -66c0 -16 4 -29 16 -38c-8 -9 -11 -11 -28 -11c-18 0 -27 14 -32 25c-4 -10 -9 -31 -9 -65
c0 -73 59 -118 117 -123c0 0 76 211 119 336z" />
    <glyph glyph-name="afii10087" unicode="&#x445;" horiz-adv-x="448" 
d="M489 118c-16 -21 -134 -146 -214 -146c-49 0 -84 55 -113 170c-23 -30 -51 -58 -83 -98s-63 -87 -78 -88c-15 0 -8 7 -8 20c11 22 92 115 160 191c-29 106 -35 122 -40 143c-15 58 -27 45 -27 69c0 10 14 29 31 45c11 10 26 16 32 16c11 0 26 1 34 -38
c13 -61 25 -117 36 -168c61 72 90 103 124 138c24 25 56 58 70 58c8 0 19 -2 19 -17c0 -28 -25 -31 -71 -73c-34 -31 -81 -73 -134 -138c29 -111 49 -167 108 -167c33 0 98 49 145 95z" />
    <glyph glyph-name="afii10088" unicode="&#x446;" horiz-adv-x="482" 
d="M473 432c0 -19 0 -36 -50 -104c-12 -26 -25 -75 -37 -109c-10 -30 -28 -77 -28 -145c0 -47 20 -68 20 -136c0 -105 -124 -284 -183 -321l-12 1c59 61 129 179 129 266c0 83 -32 123 -32 172c0 66 40 188 40 188s-122 -124 -242 -223c-27 -22 -48 -27 -54 -27
c-18 0 -20 12 -20 39c0 9 12 46 32 98l54 137c30 75 33 89 43 112c17 40 67 63 86 63c5 0 7 -3 7 -11c0 -13 -4 -31 -17 -64l-61 -157c-14 -36 -35 -83 -35 -94c0 -5 -1 -12 8 -12c15 0 44 22 79 54c62 57 119 113 140 150c16 28 28 83 55 111c15 15 19 16 35 24
c10 5 20 6 27 6c9 0 16 -4 16 -18z" />
    <glyph glyph-name="afii10089" unicode="&#x447;" horiz-adv-x="417" 
d="M454 114c-23 -18 -70 -50 -124 -80c-82 -46 -127 -56 -147 -56c-21 0 -21 16 -21 27c0 19 7 59 41 153c18 48 60 149 70 172l-3 4c-20 -7 -49 -20 -91 -20c-20 0 -55 8 -72 43l-8 -6c-8 -6 -13 -10 -19 -10c-4 0 -7 4 -7 9c0 6 7 13 16 21l12 10c-5 34 1 136 69 136
c14 0 32 -7 32 -28c0 -29 -16 -70 -32 -90c2 -34 35 -38 48 -38c18 0 41 1 74 16c19 9 37 18 51 18c7 0 12 -5 12 -11c0 -18 -18 -63 -26 -83c-26 -66 -81 -221 -81 -236c0 -22 7 -22 26 -22c32 0 109 43 171 83z" />
    <glyph glyph-name="afii10090" unicode="&#x448;" horiz-adv-x="751" 
d="M800 123c-23 -18 -69 -51 -124 -80c-72 -38 -119 -58 -141 -58c-17 0 -22 17 -22 28c0 67 34 154 55 217l-3 1c-104 -107 -232 -224 -291 -224c-16 0 -18 12 -18 20c0 10 9 45 20 76l45 122l-2 1c-52 -58 -230 -232 -282 -232c-17 0 -23 13 -23 32c0 22 17 68 31 105
c38 99 89 223 100 249c17 40 67 63 86 63c5 0 7 -3 7 -11c-1 -10 -3 -28 -17 -64l-102 -257c-2 -6 -6 -23 4 -23c25 0 140 103 213 189c15 31 39 105 64 134c26 30 50 36 66 36c15 0 21 -9 21 -21c0 -19 -29 -76 -61 -121c-14 -37 -51 -136 -65 -183c-3 -12 -11 -31 3 -31
c30 0 171 136 216 189c17 41 31 92 60 126c22 26 44 32 60 32c9 0 21 -5 21 -19c0 -19 -13 -62 -63 -130c-37 -96 -62 -185 -62 -216c0 -9 1 -22 18 -22c48 0 115 44 177 84z" />
    <glyph glyph-name="afii10091" unicode="&#x449;" horiz-adv-x="740" 
d="M721 419c0 -19 -13 -62 -63 -130c-34 -88 -64 -174 -64 -241c0 -37 12 -67 12 -118c0 -112 -117 -273 -175 -339l-15 1c60 82 124 197 124 284c0 70 -23 101 -23 168c0 62 47 185 47 185l-4 2c-44 -55 -224 -224 -286 -224c-17 0 -18 12 -18 24c0 13 15 55 18 64l47 130
l-2 1c-105 -110 -246 -232 -282 -232c-12 0 -24 5 -24 31c0 20 18 69 32 106c38 99 89 223 100 249c17 40 67 63 86 63c5 0 7 -2 7 -11s-7 -33 -19 -63c-16 -41 -34 -86 -58 -147s-45 -119 -45 -124s1 -10 7 -10c21 0 140 103 213 189c16 38 42 105 67 134
c31 36 49 36 70 36c9 0 14 -7 14 -21c0 -19 -29 -76 -61 -121c-14 -37 -65 -183 -65 -183c-1 -8 -11 -31 3 -31c34 0 160 123 213 191c16 31 45 100 66 125c22 26 41 31 57 31c9 0 21 -5 21 -19z" />
    <glyph glyph-name="afii10092" unicode="&#x44a;" horiz-adv-x="388" 
d="M368 222c0 -29 -18 -83 -55 -126c-51 -60 -115 -119 -203 -119c-34 0 -50 30 -50 59c0 58 58 182 113 302c6 14 15 38 15 51c0 8 -2 19 -37 19c-31 0 -69 -13 -105 -33c9 15 14 24 14 24c23 20 102 48 163 48c30 0 39 -15 39 -30c0 -11 2 -23 -12 -55
c-21 -49 -25 -57 -51 -120c22 22 61 42 103 42c41 0 66 -17 66 -62zM289 168c0 66 -55 71 -100 50c-21 -54 -45 -105 -45 -155c0 -23 15 -34 44 -34c43 0 101 78 101 139z" />
    <glyph glyph-name="afii10093" unicode="&#x44b;" horiz-adv-x="586" 
d="M634 114c-23 -18 -69 -51 -124 -80c-71 -37 -105 -46 -125 -46c-17 0 -25 15 -25 36c0 36 14 77 33 140c8 28 49 143 49 174c0 20 -7 30 -24 30c-46 0 -149 -47 -155 -64c32 -34 59 -60 59 -98c0 -31 -8 -66 -51 -110c-54 -56 -137 -119 -227 -119c-28 0 -47 14 -47 43
c0 34 13 82 56 181c10 24 63 160 88 209c19 23 61 37 69 37c9 0 15 -1 15 -13c0 -8 -6 -24 -19 -55c-13 -30 -49 -113 -90 -215c-15 -38 -34 -88 -34 -100c0 -25 10 -35 40 -35c74 0 125 92 125 139c0 59 -50 90 -50 112c0 18 66 60 125 86c93 40 119 44 134 44
c23 0 62 3 62 -44c0 -30 -6 -52 -30 -124c-34 -101 -51 -151 -51 -178c0 -9 -2 -22 11 -22c48 0 115 44 177 84z" />
    <glyph glyph-name="afii10094" unicode="&#x44c;" horiz-adv-x="338" 
d="M317 222c0 -29 -18 -83 -55 -126c-51 -60 -115 -119 -203 -119c-34 0 -50 30 -50 59c0 42 12 85 44 166c18 45 58 120 86 162c27 41 68 81 94 81c6 0 13 -3 13 -10c0 -11 -21 -36 -39 -67c-23 -41 -32 -63 -59 -126c22 22 61 42 103 42c41 0 66 -17 66 -62zM238 168
c0 66 -55 71 -100 50c-21 -54 -41 -97 -41 -154c0 -22 11 -35 40 -35c43 0 101 78 101 139z" />
    <glyph glyph-name="afii10095" unicode="&#x44d;" horiz-adv-x="442" 
d="M474 267c-5 -18 -17 -29 -24 -33c-8 -6 -14 -7 -25 -8c-25 -50 -61 -108 -109 -156c-58 -57 -118 -90 -176 -90c-27 0 -94 4 -94 70c0 38 35 58 58 60c6 -47 25 -84 74 -84c42 0 71 17 104 50c41 42 70 118 76 145l-86 -4l-92 -5c-10 -1 -17 0 -17 8c0 10 17 17 29 20
c19 5 37 7 62 10c47 6 113 11 113 11c4 20 7 44 7 65c0 69 -47 76 -70 76c-52 0 -156 -42 -220 -114c-3 -4 -8 -6 -13 -6c-6 0 -9 3 -9 8c1 10 6 18 6 18c90 88 213 146 290 146c53 0 96 -23 96 -94c0 -28 -5 -71 -12 -92c0 0 20 -1 32 -1z" />
    <glyph glyph-name="afii10096" unicode="&#x44e;" horiz-adv-x="653" 
d="M711 110c-85 -61 -160 -104 -260 -104c-18 0 -33 4 -33 4c-32 -17 -55 -25 -89 -25c-47 0 -87 30 -87 109c0 37 12 91 18 110c-19 -10 -47 -23 -73 -30c-31 -9 -60 -11 -60 -11c-8 -33 -27 -114 -53 -142c-21 -23 -38 -27 -54 -27c-22 0 -24 8 -24 25c0 12 18 61 29 95
l17 53c-9 11 -9 9 -9 26c0 14 16 27 38 29l9 22c43 106 43 124 59 150c23 37 57 49 76 49c5 0 7 -3 7 -11c-1 -10 -19 -48 -31 -82l-48 -140s23 -1 51 3c27 4 54 9 80 31c14 40 34 89 55 110c9 9 25 18 43 18c12 0 18 -5 22 -9h3c44 39 85 82 155 82c51 0 89 -24 89 -108
c0 -97 -80 -239 -183 -300c1 -1 14 -4 35 -4c57 0 134 34 209 89zM561 304c0 51 -17 83 -68 83c-34 0 -153 -64 -153 -209c0 -77 25 -122 79 -132c90 20 142 164 142 258z" />
    <glyph glyph-name="afii10097" unicode="&#x44f;" horiz-adv-x="457" 
d="M493 112c-22 -16 -68 -46 -116 -74c-70 -41 -100 -49 -124 -49c-22 0 -28 16 -28 28c0 36 39 109 39 126c0 8 -10 10 -10 10c-16 -19 -40 -49 -92 -94c-70 -60 -110 -67 -139 -67c-46 0 -50 39 -50 53c0 43 37 75 57 81c-2 -18 -2 -70 43 -70c31 0 61 14 91 38
c29 23 60 55 73 69c-33 23 -91 50 -91 126c0 105 135 168 186 168c52 0 67 -22 67 -63c0 -89 -97 -188 -97 -188c17 -9 40 -14 40 -43c0 -28 -26 -68 -26 -91c0 -9 0 -22 17 -22c29 0 89 34 151 74zM344 358c0 54 -27 62 -41 62c-48 0 -87 -40 -87 -101
c0 -56 16 -74 65 -105c40 43 63 106 63 144z" />
    <glyph glyph-name="divide" unicode="&#xf7;" horiz-adv-x="549" 
d="M274 222c24 0 43 -19 43 -43c0 -23 -19 -43 -43 -43c-23 0 -43 20 -43 43c0 24 19 43 43 43zM538 353v-41h-527v41h527zM274 525c24 0 43 -19 43 -43c0 -23 -19 -42 -43 -42s-43 19 -43 42c0 24 19 43 43 43z" />
    <glyph glyph-name="notequal" unicode="&#x2260;" horiz-adv-x="549" 
d="M12 354v45h294l103 261h39l-101 -261h190v-45h-208l-70 -181h278v-46h-296l-103 -258h-39l102 258h-189v46h207l71 181h-278z" />
    <glyph glyph-name="infinity" unicode="&#x221e;" horiz-adv-x="713" 
d="M305 288c-32 72 -71 105 -131 105c-68 0 -121 -53 -121 -134c0 -43 11 -78 34 -104s49 -39 78 -39c31 0 58 14 82 42c15 18 35 61 58 130zM366 227c48 -103 93 -129 152 -129c80 0 141 63 141 159c0 48 -14 88 -43 119c-28 31 -60 47 -95 47c-45 0 -77 -21 -104 -72
c-8 -15 -25 -56 -51 -124zM319 326c22 51 46 86 72 105c27 20 63 30 109 30c52 0 96 -19 133 -57c36 -37 54 -86 54 -147c0 -59 -18 -108 -53 -147s-75 -58 -118 -58c-32 0 -62 12 -90 36c-18 15 -43 50 -74 104c-43 -81 -88 -114 -159 -114c-47 0 -86 17 -118 50
c-33 34 -49 77 -49 130c0 54 15 97 45 130s65 49 105 49c28 0 53 -7 74 -22c21 -14 44 -44 69 -89z" />
    <glyph glyph-name="lessequal" unicode="&#x2264;" horiz-adv-x="549" 
d="M12 -79v45h525v-45h-525zM536 170v-50l-524 223v40l524 222v-50l-464 -192z" />
    <glyph glyph-name="greaterequal" unicode="&#x2265;" horiz-adv-x="549" 
d="M12 -79v45h525v-45h-525zM12 555v50l524 -223v-40l-524 -222v50l464 192z" />
    <glyph glyph-name="radical" unicode="&#x221a;" horiz-adv-x="549" 
d="M385 119l127 794h36l-152 -951l-242 498l-97 -44l-16 31l146 74z" />
    <glyph glyph-name="approxequal" unicode="&#x2248;" horiz-adv-x="549" 
d="M514 267h21c-3 -83 -54 -134 -118 -134c-15 0 -40 5 -74 15l-109 45c-51 21 -87 31 -108 31c-45 0 -78 -27 -90 -90h-21c-1 86 55 132 112 134c14 0 29 -2 44 -6c34 -10 81 -28 142 -54c32 -14 58 -23 77 -28c9 -3 20 -4 32 -4c49 0 85 31 92 91zM514 507h21
c-3 -83 -54 -133 -118 -133c-15 0 -32 2 -49 7s-61 22 -134 52c-51 21 -87 31 -108 31c-45 0 -78 -28 -90 -89h-21c-1 84 56 131 113 133c14 0 28 -2 43 -7c34 -9 81 -27 142 -53c32 -14 58 -24 77 -29c9 -2 20 -3 32 -3c49 0 85 31 92 91z" />
    <glyph glyph-name="Delta" unicode="&#x394;" horiz-adv-x="612" 
d="M74 40h409l-194 472zM319 677l280 -677h-586z" />
    <glyph glyph-name="Delta" unicode="&#x2206;" horiz-adv-x="612" 
d="M74 40h409l-194 472zM319 677l280 -677h-586z" />
    <glyph glyph-name="Euro" unicode="&#x20ac;" 
d="M471 568h-19c-8 66 -56 97 -123 97c-111 0 -152 -95 -164 -252h257l-14 -36h-245c0 -9 -1 -22 -1 -31c0 -10 0 -26 1 -35h220l-14 -35h-205c10 -165 66 -255 166 -255c57 0 112 26 122 99h19l-5 -77c-24 -33 -67 -60 -153 -60c-143 0 -216 100 -229 293h-65l13 35h48
c-1 9 -1 26 -1 36c0 8 1 21 1 30h-61l13 36h51c16 187 76 291 230 291c92 0 133 -31 153 -57z" />
    </font>
</defs>
</svg>
